<svg width="223" height="169" viewBox="0 0 223 169" fill="none" xmlns="http://www.w3.org/2000/svg">
<g clip-path="url(#clip0_86_952)">
<path d="M167.627 92.6766C173.174 88.598 182.28 91.6113 182.28 101.425C184.947 95.9179 196.6 97.2513 196 106.478C199.614 104.091 204.6 106.251 204.44 111.358C209.334 108.731 218.32 114.131 216.362 122.103C213.707 121.238 210.574 121.691 208 123.811C206.44 117.745 200.04 115.865 194.44 116.251C190.082 116.557 186.387 119.851 184.987 123.305C182.547 121.77 179.334 121.437 175.774 122.251C169.667 123.638 166.107 127.425 165.334 132.691C162.6 127.585 155.107 129.745 154.214 134.478C152.28 127.585 145.44 125.585 140.774 126.091C136.76 126.518 131.614 128.758 130.094 134.638C126.774 131.45 121.4 129.103 115.547 129.585C111.147 129.945 107.067 132.211 104.574 135.557C103.907 129.677 92.5204 127.465 88.2538 132.985C86.2004 130.585 82.7338 128.731 78.9471 128.411C75.1605 128.103 70.0938 129.078 67.1738 132.531C66.3471 127.051 58.8271 123.677 53.6005 125.677C51.9605 119.437 39.5605 114.918 33.7738 125.145C33.1071 118.918 28.2138 116.478 23.7738 116.478C17.0938 116.478 13.5471 121.585 13.3338 124.691C11.7338 123.798 9.94713 123.585 8.24047 123.918C6.0818 116.038 15.3738 109.997 20.6671 113.585C19.3338 105.585 29.1071 102.251 33.6138 107.585C31.7871 100.425 39.2538 95.3713 45.0538 97.5046C47.0818 90.1033 59.4805 85.7699 65.7738 94.0246C66.6671 88.6913 71.8671 85.1979 78.2805 86.0913C81.2671 86.5046 83.6138 87.9966 85.1204 89.8646C87.3338 83.8379 96.6951 82.5712 99.7738 87.9179C101.707 77.1579 120.067 72.2233 127.44 83.6113C129.894 82.3713 132.96 82.0099 136.44 82.9179C142 84.3712 144.947 89.0779 145.334 92.6913C148.72 82.9179 164.574 84.6913 167.614 92.6766H167.627Z" fill="#D87639"/>
<path d="M33.7742 125.145C39.5609 114.918 51.9609 119.437 53.6009 125.677C58.8275 123.677 66.3475 127.051 67.1742 132.531C70.0942 129.078 75.1609 128.103 78.9475 128.411C82.7342 128.731 86.2008 130.585 88.2542 132.985C92.5208 127.465 103.908 129.677 104.574 135.557C107.068 132.211 111.148 129.945 115.548 129.585C121.401 129.103 126.774 131.45 130.094 134.638C131.614 128.758 136.761 126.518 140.774 126.091C145.441 125.585 152.281 127.585 154.214 134.478C155.108 129.745 162.601 127.585 165.334 132.691C166.108 127.425 169.668 123.638 175.774 122.251C179.334 121.437 182.548 121.77 184.988 123.305C186.322 120.013 189.752 116.895 193.845 116.343C190.47 113.078 184.157 113.549 182.281 117.425C182.281 107.611 173.174 104.598 167.628 108.677H167.614C164.574 100.691 148.721 98.9179 145.334 108.691C144.948 105.078 142.001 100.371 136.441 98.9179C132.961 98.0099 129.894 98.3713 127.441 99.6113C120.068 88.2233 101.708 93.1579 99.7742 103.918C96.6955 98.5712 87.3342 99.8379 85.1208 105.865C83.6142 103.997 81.2675 102.505 78.2809 102.091C71.8675 101.198 66.6675 104.691 65.7742 110.025C59.4809 101.77 47.0822 106.103 45.0542 113.505C39.2542 111.371 31.7875 116.425 33.6142 123.585L33.4462 123.417C33.5902 123.961 33.7075 124.529 33.7742 125.145Z" fill="#B74F2F"/>
<path d="M192.661 126.695C192.661 137.923 159.082 147.029 117.661 147.029C76.2411 147.029 42.6611 137.923 42.6611 126.695C42.6611 115.467 76.2411 106.362 117.661 106.362C159.082 106.362 192.661 115.467 192.661 126.695Z" fill="#612D26"/>
<path d="M216.362 122.103C219.841 123.223 222.534 126.585 222.214 131.358C221.721 138.905 216.761 141.158 211.654 140.425C211.654 141.783 211.348 143.238 210.668 144.691C208.308 149.798 200.001 151.811 192.001 148.251C190.029 158.851 176.001 159.437 170.548 156.01C167.801 162.238 158.696 164.025 153.828 160.065C151.734 166.265 140.534 167.505 136.601 161.251C132.948 166.585 126.721 169.251 116.601 168.251C111.029 167.691 107.601 165.838 105.574 163.545C96.8809 171.825 82.2276 166.411 79.9343 159.251C77.6143 162.411 72.2809 164.411 65.7743 163.251C62.1343 162.598 58.4676 160.131 56.8143 156.545C51.5076 162.918 38.5476 159.677 37.6143 151.918C31.3876 154.198 19.9343 153.585 16.2809 148.091C15.0009 146.171 14.2676 144.305 13.9609 142.545C5.90758 143.158 0.734263 139.571 0.44093 133.585C0.20093 128.731 4.01426 124.705 8.24093 123.918C9.9476 123.585 11.7343 123.798 13.3343 124.691C13.5476 121.585 17.0943 116.478 23.7743 116.478C28.2143 116.478 33.1076 118.918 33.7743 125.145C39.5609 114.918 51.9609 119.437 53.6009 125.677C58.8276 123.677 66.3476 127.051 67.1743 132.531C70.0943 129.078 75.1609 128.103 78.9476 128.411C82.7343 128.731 86.2009 130.585 88.2542 132.985C92.5209 127.465 103.908 129.677 104.574 135.557C107.068 132.211 111.148 129.945 115.548 129.585C121.401 129.103 126.774 131.45 130.094 134.638C131.614 128.758 136.761 126.518 140.774 126.091C145.441 125.585 152.281 127.585 154.214 134.478C155.108 129.745 162.601 127.585 165.334 132.691C166.108 127.425 169.668 123.638 175.774 122.251C179.334 121.437 182.548 121.77 184.988 123.305C186.388 119.851 190.082 116.557 194.441 116.251C200.041 115.865 206.441 117.745 208.001 123.811C210.574 121.691 213.708 121.238 216.362 122.103Z" fill="#E88D3A"/>
<path d="M216.979 122.362C216.409 129.333 211.749 131.426 206.943 130.737C206.943 132.033 206.651 133.418 206.005 134.802C203.754 139.669 195.838 141.589 188.214 138.195C186.333 148.298 172.965 148.857 167.767 145.591C165.149 151.526 156.473 153.229 151.833 149.453C149.837 155.362 139.165 156.545 135.415 150.585C131.931 155.667 125.998 158.21 116.354 157.257C111.042 156.722 107.775 154.955 105.845 152.77C97.5595 160.661 83.5928 155.502 81.4088 148.679C79.1968 151.69 74.1141 153.597 67.9141 152.49C64.4435 151.869 60.9488 149.518 59.3741 146.099C54.3155 152.173 41.9661 149.086 41.0755 141.69C35.1408 143.862 24.2248 143.278 20.7435 138.042C19.5235 136.213 18.8235 134.434 18.5315 132.758C11.1275 133.321 6.29147 130.154 5.70747 124.806C2.61414 126.411 0.251472 129.734 0.440806 133.585C0.734139 139.571 5.90746 143.158 13.9608 142.545C14.2675 144.305 15.0008 146.171 16.2808 148.091C19.9341 153.585 31.3875 154.198 37.6141 151.918C38.5475 159.677 51.5075 162.918 56.8141 156.545C58.4675 160.131 62.1341 162.598 65.7741 163.251C72.2808 164.411 77.6141 162.411 79.9341 159.251C82.2275 166.411 96.8808 171.825 105.574 163.545C107.601 165.838 111.029 167.691 116.601 168.251C126.721 169.251 132.947 166.585 136.601 161.251C140.534 167.505 151.734 166.265 153.827 160.065C158.695 164.025 167.801 162.238 170.547 156.01C176.001 159.437 190.029 158.851 192.001 148.251C200.001 151.811 208.307 149.798 210.667 144.691C211.347 143.238 211.654 141.783 211.654 140.425C216.761 141.158 221.721 138.905 222.214 131.358C222.515 126.878 220.149 123.666 216.979 122.362Z" fill="#D87639"/>
<path d="M30.2344 126.654L30.2584 126.671L30.3144 126.711L30.2344 126.654Z" fill="#F1AC56"/>
<path d="M30.7585 127.058C30.5918 126.93 30.4238 126.801 30.2585 126.671C29.7198 126.19 29.0785 125.871 28.4038 125.741C28.6532 125.109 28.7838 124.367 28.7025 123.695C28.5012 122.01 27.8878 120.903 26.5038 119.893C25.4212 119.103 23.9332 119.19 22.6972 119.385C21.6145 119.557 20.5798 120.346 19.8065 121.067C17.9838 122.766 16.9105 125.671 18.2652 127.966C19.3532 129.805 21.7332 130.515 23.7732 130.079C23.7185 130.67 23.7838 131.267 24.0225 131.843C24.3692 132.679 24.4958 132.902 25.0745 133.619C25.6185 134.294 26.6225 134.565 27.4412 134.599C27.7065 134.61 28.3625 134.79 27.5265 134.57C29.0505 134.971 30.5919 134.318 31.4145 132.989C31.9745 132.081 31.9585 131.074 31.9945 130.057C32.0212 129.313 31.8252 128.499 31.4225 127.87C31.2545 127.549 31.0332 127.278 30.7585 127.058Z" fill="#F1AC56"/>
<path d="M55.6112 134.859L55.3499 134.666C54.9979 134.242 54.5672 133.893 54.0699 133.654C53.6445 132.341 52.7725 131.201 51.4899 130.398C50.6739 129.887 49.5605 129.617 48.5445 129.711C48.5685 129.459 48.5872 129.206 48.5712 128.962C48.4699 127.526 47.9645 126.37 47.0112 125.294C45.4379 123.519 42.3752 123.619 40.7846 125.263C39.6139 126.471 39.4765 128.098 40.0779 129.423C39.8019 130.591 40.2272 131.874 41.0299 132.758C41.7192 133.521 42.9645 133.873 43.9779 133.806C43.4605 135.015 43.3565 136.43 43.7059 137.647C44.3979 140.045 46.5859 141.025 48.7992 140.901C49.6072 141.035 50.4432 141.045 51.3179 141.023L51.4459 141.078H51.4512C52.8472 141.651 54.4005 141.521 55.6112 140.31C56.9752 138.945 57.2525 136.177 55.6112 134.859Z" fill="#F1AC56"/>
<path d="M75.1715 133.485C73.8635 133.785 72.5475 134.405 71.4821 135.283C71.1581 135.075 70.8061 134.901 70.4101 134.739C71.9861 135.382 71.0355 134.963 70.6501 134.77C69.6515 134.27 68.9688 134.122 67.8674 134.006C67.0221 133.918 65.9648 134.23 65.2515 134.671C64.4021 135.198 63.4474 136.165 63.2981 137.185C63.1354 138.291 63.1341 138.465 63.2994 139.569C63.4928 140.873 64.8421 141.979 66.0368 142.307C66.4141 142.411 66.8155 142.447 67.2181 142.43L67.3648 142.485C68.2328 142.711 69.0314 142.607 69.8234 142.357C70.0941 142.893 70.4275 143.395 70.8421 143.833C71.3448 145.022 72.3274 146.034 73.7928 146.519C76.4181 147.389 79.7554 146.919 81.9528 145.281C85.2674 142.813 86.4768 138.522 83.5355 135.223C81.5781 133.03 77.8261 132.875 75.1715 133.485Z" fill="#F1AC56"/>
<path d="M59.1089 128.994C57.5769 128.994 56.2969 130.273 56.2969 131.807C56.2969 133.341 57.5769 134.619 59.1089 134.619C60.6409 134.619 61.9209 133.341 61.9209 131.807C61.9209 130.273 60.6409 128.994 59.1089 128.994Z" fill="#F1AC56"/>
<path d="M131.997 143.033C130.606 143.033 129.445 144.193 129.445 145.585C129.445 146.977 130.606 148.137 131.997 148.137C133.387 148.137 134.549 146.977 134.549 145.585C134.549 144.193 133.387 143.033 131.997 143.033Z" fill="#F1AC56"/>
<path d="M33.9675 135.059L33.8689 135.133C32.8089 135.429 32.1275 136.842 33.0995 137.815C34.0755 138.791 35.4968 138.102 35.7875 137.039L35.8555 136.947C36.6635 135.854 35.0595 134.249 33.9675 135.059Z" fill="#F1AC56"/>
<path d="M99.8944 138.958C98.8651 138.502 98.0851 138.247 96.9291 138.221C95.8864 138.198 94.8197 138.625 93.9197 139.091C91.4651 140.362 90.2237 143.747 91.7597 146.155C92.2291 146.89 92.8638 147.469 93.6064 147.841C94.1971 148.474 94.9584 148.945 95.7998 149.125C97.0251 149.385 98.0904 149.174 99.2078 148.622L99.3957 148.501C100.253 147.83 100.358 147.755 99.7078 148.273C100.093 148.034 100.449 147.734 100.785 147.429C101.981 146.335 102.592 145.099 102.746 143.475C102.92 141.658 101.498 139.669 99.8944 138.958Z" fill="#F1AC56"/>
<path d="M126.403 138.51C124.703 136.752 122.319 135.932 119.941 135.683C116.941 135.372 114.48 136.226 112.699 138.75C112.487 139.051 112.308 139.36 112.149 139.674C110.833 139.076 109.263 138.988 107.833 139.236C107.52 139.291 107.224 139.391 106.943 139.52C104.987 140.208 103.661 142.366 103.899 144.422C104.159 146.678 105.531 148.575 107.844 149.088C109.829 149.528 111.733 149.02 113.285 147.736L113.317 147.703C114.321 148.81 115.676 149.643 117.283 149.999C117.691 150.091 118.095 150.136 118.5 150.16C119.385 150.324 120.292 150.28 121.132 150.026C121.265 150.036 121.395 150.05 121.531 150.056C127.205 150.296 130.199 142.435 126.403 138.51Z" fill="#F1AC56"/>
<path d="M147.963 134.682C147.935 134.473 147.897 134.265 147.83 134.059C147.473 132.977 146.407 131.889 145.154 132.023C143.791 132.169 142.609 132.667 141.874 133.911C141.474 134.589 141.383 135.318 141.482 136.01C139.254 136.142 137.411 137.839 137.341 140.122C137.282 140.313 137.231 140.502 137.195 140.69C136.862 142.378 137.65 144.461 139.546 144.83C140.769 145.07 141.851 145.171 143.078 144.937C145.337 144.507 146.699 142.441 146.786 140.251C146.809 139.666 146.667 139.106 146.425 138.591C147.445 137.985 148.121 136.835 148.055 135.669L148.066 135.589C148.055 135.209 147.934 134.367 147.963 134.682Z" fill="#F1AC56"/>
<path d="M189.441 128.601C188.57 128.601 187.765 128.901 187.103 129.389L187.003 129.134C186.874 128.859 186.567 128.002 186.957 129.177C186.767 128.606 186.487 127.961 186.142 127.446C184.535 125.042 182.03 124.046 179.198 124.474C180.846 124.226 178.963 124.437 178.413 124.622C177.575 124.901 176.819 125.294 176.189 125.925C174.982 127.13 174.442 129.009 174.89 130.663L174.831 131.011C174.189 130.977 173.497 131.046 173.017 131.221C171.861 131.642 171.133 132.255 170.405 133.127C169.99 132.994 169.561 132.902 169.107 132.902C167.001 132.902 165.213 134.466 164.839 136.477C164.421 136.094 163.954 135.765 163.511 135.526C162.109 134.771 160.558 134.537 159.009 134.931C157.319 135.361 155.909 137.089 155.975 138.866L155.922 138.933C155.335 139.761 155.374 140.922 155.579 141.854C155.806 142.893 156.693 143.807 157.569 144.359C158.585 145.001 159.921 145.247 161.106 145.127C162.474 144.991 164.117 144.645 165.077 143.551C165.667 142.878 166.146 142.206 166.359 141.317C166.414 141.086 166.431 140.87 166.451 140.653C167.193 141.235 168.109 141.601 169.107 141.601C169.787 141.601 170.425 141.423 171.003 141.135C171.234 141.302 171.478 141.445 171.737 141.565C172.15 142.251 172.938 142.969 173.754 143.101C174.929 143.294 175.891 143.505 177.093 143.265C178.862 142.911 179.978 141.198 180.558 139.63C180.779 139.033 180.851 138.437 180.815 137.862C181.65 137.859 182.474 137.755 183.171 137.599C184.457 137.311 185.703 136.419 186.55 135.29C187.282 136.07 188.307 136.569 189.441 136.569C191.613 136.569 193.425 134.757 193.425 132.585C193.425 130.413 191.613 128.601 189.441 128.601Z" fill="#F1AC56"/>
<path d="M203.255 122.127C202.529 120.802 201.374 120.065 200.01 119.529C198.905 119.093 197.401 118.945 196.279 119.373C194.437 120.073 193.071 121.499 193.071 123.585C193.071 124.425 193.301 125.151 193.686 125.771C193.771 126.755 194.109 127.387 194.71 128.163C195.103 128.671 195.739 129.042 196.325 129.305C197.555 129.862 198.946 130.407 200.303 129.887C201.962 129.255 202.975 128.182 203.586 126.531C204.123 125.079 203.999 123.482 203.255 122.127Z" fill="#F1AC56"/>
<path d="M111.336 149.759C123.261 149.759 161.114 147.685 169.929 141.981C168.373 103.091 164.786 61.6553 159.04 44.2379C151.317 20.8286 133.35 5.60864 111.336 5.60864C89.3208 5.60864 71.3542 20.8286 63.6315 44.2379C57.8848 61.6553 54.2982 103.091 52.7422 141.981C61.5569 147.685 99.4102 149.759 111.336 149.759Z" fill="#CD5C29"/>
<path d="M111.336 125.491C87.9115 125.491 67.3635 112.965 55.7409 94.1299C54.3849 109.254 53.3875 125.833 52.7422 141.981C61.5569 147.685 99.4102 149.759 111.336 149.759C123.261 149.759 161.114 147.685 169.929 141.981C169.284 125.833 168.286 109.254 166.93 94.1299C155.308 112.965 134.76 125.491 111.336 125.491Z" fill="#BA4927"/>
<path d="M60.0755 143.349C61.5422 106.673 64.9262 67.5953 70.3449 51.1673C77.6289 29.0913 94.5742 14.7353 115.336 14.7353C136.098 14.7353 153.042 29.0913 160.326 51.1673C161.319 54.1793 160.541 48.786 159.04 44.238C151.317 20.8287 133.35 5.60872 111.336 5.60872C89.3208 5.60872 71.3542 20.8287 63.6315 44.238C57.8848 61.6553 54.2982 103.091 52.7422 141.981C55.8342 143.982 62.1129 144.667 60.0755 143.349Z" fill="#E6894A"/>
<path d="M54.7904 140.845C64.4624 145.694 98.7104 147.759 111.336 147.759C123.961 147.759 158.209 145.694 167.881 140.845C166.021 95.4686 162.016 59.6406 157.141 44.8646C149.56 21.8846 132.008 7.60864 111.336 7.60864C90.6638 7.60864 73.1118 21.8846 65.5304 44.8646C60.6558 59.6406 56.6504 95.4686 54.7904 140.845ZM111.336 151.759C104.006 151.759 61.8637 150.266 51.6557 143.659C51.0624 143.275 50.7158 142.606 50.7438 141.901C51.6331 119.666 54.4838 65.5806 61.7318 43.6112C69.8718 18.9366 88.8784 3.60864 111.336 3.60864C133.793 3.60864 152.8 18.9366 160.94 43.6112C168.188 65.5806 171.038 119.666 171.928 141.901C171.956 142.606 171.609 143.275 171.016 143.659C160.808 150.266 118.665 151.759 111.336 151.759Z" fill="#100F0D"/>
<path d="M119.766 89.1046L119.779 89.1579C119.779 93.3979 116.006 100.571 111.339 100.571C106.672 100.571 102.886 93.3979 102.886 89.1579L102.912 89.1046C105.459 89.9192 108.326 90.3845 111.339 90.3845C114.366 90.3845 117.219 89.9192 119.766 89.1046Z" fill="#F8F8F8"/>
<path d="M111.339 64.5994C122.006 64.5994 130.673 70.3727 130.673 77.4914C130.673 82.5994 126.219 87.0114 119.766 89.1048C117.219 89.9194 114.366 90.3847 111.339 90.3847C108.326 90.3847 105.459 89.9194 102.913 89.1048V89.0927C96.4592 87.0114 92.0059 82.5994 92.0059 77.4914C92.0059 70.3727 100.659 64.5994 111.339 64.5994Z" fill="#FDEAB3"/>
<path d="M120.113 72.7912C120.113 75.9218 116.183 79.9365 111.335 79.9365C106.487 79.9365 102.558 75.9218 102.558 72.7912C102.558 69.6618 106.487 68.6031 111.335 68.6031C116.183 68.6031 120.113 69.6618 120.113 72.7912Z" fill="#100F0D"/>
<path d="M111.085 71.8087C111.207 72.6274 110.101 73.474 108.616 73.698C107.129 73.922 105.823 73.4394 105.699 72.6207C105.577 71.802 106.681 70.9554 108.168 70.7314C109.653 70.5074 110.961 70.9887 111.085 71.8087Z" fill="white"/>
<path d="M111.336 89.0473C101.41 89.0473 93.3356 83.8646 93.3356 77.4913C93.3356 71.1193 101.41 65.9353 111.336 65.9353C121.261 65.9353 129.336 71.1193 129.336 77.4913C129.336 83.8646 121.261 89.0473 111.336 89.0473ZM112.336 99.074V91.6793C114.4 91.6113 116.382 91.3367 118.246 90.8793C117.553 94.198 115.1 98.2433 112.336 99.074ZM104.425 90.8793C106.289 91.3367 108.272 91.6113 110.336 91.6793V99.074C107.572 98.2433 105.118 94.198 104.425 90.8793ZM132.002 77.4913C132.002 69.65 122.732 63.2687 111.336 63.2687C99.9396 63.2687 90.6689 69.65 90.6689 77.4913C90.6689 82.914 95.1023 87.634 101.605 90.0327C102.065 94.6313 105.946 101.909 111.336 101.909C116.725 101.909 120.606 94.6313 121.066 90.0327C127.569 87.634 132.002 82.914 132.002 77.4913Z" fill="#100F0D"/>
<path d="M98.4302 78.7338H87.9089C87.5395 78.7338 87.2422 78.4352 87.2422 78.0672C87.2422 77.6992 87.5395 77.4005 87.9089 77.4005H98.4302C98.7995 77.4005 99.0968 77.6992 99.0968 78.0672C99.0968 78.4352 98.7995 78.7338 98.4302 78.7338Z" fill="#100F0D"/>
<path d="M88.5432 86.7792C88.3045 86.7792 88.0725 86.6498 87.9538 86.4232C87.7818 86.0978 87.9085 85.6938 88.2338 85.5232L98.1205 80.3272C98.4445 80.1566 98.8498 80.2819 99.0205 80.6072C99.1925 80.9339 99.0658 81.3366 98.7405 81.5072L88.8538 86.7032L88.5432 86.7792Z" fill="#100F0D"/>
<path d="M98.4298 76.2021L98.1205 76.1247L88.2338 70.9301C87.9085 70.7594 87.7818 70.3554 87.9538 70.0301C88.1245 69.7047 88.5298 69.5807 88.8538 69.7501L98.7405 74.9447C99.0658 75.1154 99.1925 75.5194 99.0205 75.8447C98.9018 76.0714 98.6698 76.2021 98.4298 76.2021Z" fill="#100F0D"/>
<path d="M134.762 78.7338H124.241C123.872 78.7338 123.574 78.4352 123.574 78.0672C123.574 77.6992 123.872 77.4005 124.241 77.4005H134.762C135.132 77.4005 135.429 77.6992 135.429 78.0672C135.429 78.4352 135.132 78.7338 134.762 78.7338Z" fill="#100F0D"/>
<path d="M134.127 86.7792L133.817 86.7032L123.93 81.5072C123.605 81.3366 123.478 80.9339 123.65 80.6072C123.822 80.2819 124.226 80.1566 124.55 80.3272L134.437 85.5232C134.762 85.6938 134.889 86.0978 134.717 86.4232C134.598 86.6498 134.366 86.7792 134.127 86.7792Z" fill="#100F0D"/>
<path d="M124.241 76.2021C124.001 76.2021 123.769 76.0714 123.65 75.8447C123.478 75.5194 123.605 75.1154 123.93 74.9447L133.817 69.7501C134.141 69.5807 134.546 69.7047 134.717 70.0301C134.889 70.3554 134.762 70.7594 134.437 70.9301L124.55 76.1247L124.241 76.2021Z" fill="#100F0D"/>
<path d="M87.5859 63.4915C87.5859 67.4208 84.4033 70.6035 80.474 70.6035C76.5473 70.6035 73.3633 67.4208 73.3633 63.4915C73.3633 59.5648 76.5473 56.3808 80.474 56.3808C84.4033 56.3808 87.5859 59.5648 87.5859 63.4915Z" fill="#100F0D"/>
<path d="M80.4743 61.6031C80.4743 62.7685 79.5289 63.7138 78.3636 63.7138C77.1969 63.7138 76.2529 62.7685 76.2529 61.6031C76.2529 60.4378 77.1969 59.4925 78.3636 59.4925C79.5289 59.4925 80.4743 60.4378 80.4743 61.6031Z" fill="white"/>
<path d="M68.2529 48.3247C75.8596 49.45 89.8343 52.1873 98.7703 55.7726C101.892 48.694 102.516 40.566 99.9969 32.9607C100.068 37.2327 99.5543 40.4793 98.7156 42.898C87.253 37.4406 76.3836 34.5553 72.5396 33.7407C70.6676 36.8673 68.4849 43.4567 68.2529 48.3247Z" fill="#100F0D"/>
<path d="M149.306 63.4915C149.306 67.4208 146.122 70.6035 142.194 70.6035C138.266 70.6035 135.083 67.4208 135.083 63.4915C135.083 59.5648 138.266 56.3808 142.194 56.3808C146.122 56.3808 149.306 59.5648 149.306 63.4915Z" fill="#100F0D"/>
<path d="M142.193 61.6031C142.193 62.7685 141.248 63.7138 140.082 63.7138C138.917 63.7138 137.972 62.7685 137.972 61.6031C137.972 60.4378 138.917 59.4925 140.082 59.4925C141.248 59.4925 142.193 60.4378 142.193 61.6031Z" fill="white"/>
<path d="M154.42 48.3247C146.812 49.45 132.837 52.1873 123.901 55.7726C120.78 48.694 120.156 40.566 122.674 32.9607C122.604 37.2327 123.117 40.4793 123.956 42.898C135.42 37.4406 146.288 34.5553 150.132 33.7407C152.004 36.8673 154.186 43.4567 154.42 48.3247Z" fill="#100F0D"/>
<path d="M216.362 122.103C219.841 123.223 222.534 126.585 222.214 131.358C221.721 138.905 216.761 141.158 211.654 140.425C211.654 141.783 211.348 143.238 210.668 144.691C208.308 149.798 200.001 151.811 192.001 148.251C190.029 158.851 176.001 159.437 170.548 156.01C167.801 162.238 158.696 164.025 153.828 160.065C151.734 166.265 140.534 167.505 136.601 161.251C132.948 166.585 126.721 169.251 116.601 168.251C111.029 167.691 107.601 165.838 105.574 163.545C96.8809 171.825 82.2276 166.411 79.9343 159.251C77.6143 162.411 72.2809 164.411 65.7743 163.251C62.1343 162.598 58.4676 160.131 56.8143 156.545C51.5076 162.918 38.5476 159.677 37.6143 151.918C31.3876 154.198 19.9343 153.585 16.2809 148.091C15.0009 146.171 14.2676 144.305 13.9609 142.545C5.90758 143.158 0.734263 139.571 0.44093 133.585C0.20093 128.731 4.01426 124.705 8.24093 123.918C9.9476 123.585 11.7343 123.798 13.3343 124.691C13.5476 121.585 17.0943 116.478 23.7743 116.478C28.2143 116.478 33.1076 118.918 33.7743 125.145C39.5609 114.918 51.9609 119.437 53.6009 125.677C58.8276 123.677 66.3476 127.051 67.1743 132.531C70.0943 129.078 75.1609 128.103 78.9476 128.411C82.7343 128.731 86.2009 130.585 88.2542 132.985C92.5209 127.465 103.908 129.677 104.574 135.557C107.068 132.211 111.148 129.945 115.548 129.585C121.401 129.103 126.774 131.45 130.094 134.638C131.614 128.758 136.761 126.518 140.774 126.091C145.441 125.585 152.281 127.585 154.214 134.478C155.108 129.745 162.601 127.585 165.334 132.691C166.108 127.425 169.668 123.638 175.774 122.251C179.334 121.437 182.548 121.77 184.988 123.305C186.388 119.851 190.082 116.557 194.441 116.251C200.041 115.865 206.441 117.745 208.001 123.811C210.574 121.691 213.708 121.238 216.362 122.103Z" fill="#E88D3A"/>
<path d="M216.979 122.362C216.409 129.333 211.749 131.426 206.943 130.737C206.943 132.033 206.651 133.418 206.005 134.802C203.754 139.669 195.838 141.589 188.214 138.195C186.333 148.298 172.965 148.857 167.767 145.591C165.149 151.526 156.473 153.229 151.833 149.453C149.837 155.362 139.165 156.545 135.415 150.585C131.931 155.667 125.998 158.21 116.354 157.257C111.042 156.722 107.775 154.955 105.845 152.77C97.5595 160.661 83.5928 155.502 81.4088 148.679C79.1968 151.69 74.1141 153.597 67.9141 152.49C64.4435 151.869 60.9488 149.518 59.3741 146.099C54.3155 152.173 41.9661 149.086 41.0755 141.69C35.1408 143.862 24.2248 143.278 20.7435 138.042C19.5235 136.213 18.8235 134.434 18.5315 132.758C11.1275 133.321 6.29147 130.154 5.70747 124.806C2.61414 126.411 0.251472 129.734 0.440806 133.585C0.734139 139.571 5.90746 143.158 13.9608 142.545C14.2675 144.305 15.0008 146.171 16.2808 148.091C19.9341 153.585 31.3875 154.198 37.6141 151.918C38.5475 159.677 51.5075 162.918 56.8141 156.545C58.4675 160.131 62.1341 162.598 65.7741 163.251C72.2808 164.411 77.6141 162.411 79.9341 159.251C82.2275 166.411 96.8808 171.825 105.574 163.545C107.601 165.838 111.029 167.691 116.601 168.251C126.721 169.251 132.947 166.585 136.601 161.251C140.534 167.505 151.734 166.265 153.827 160.065C158.695 164.025 167.801 162.238 170.547 156.01C176.001 159.437 190.029 158.851 192.001 148.251C200.001 151.811 208.307 149.798 210.667 144.691C211.347 143.238 211.654 141.783 211.654 140.425C216.761 141.158 221.721 138.905 222.214 131.358C222.515 126.878 220.149 123.666 216.979 122.362Z" fill="#D87639"/>
<path d="M30.2344 126.654L30.2584 126.671L30.3144 126.711L30.2344 126.654Z" fill="#F1AC56"/>
<path d="M30.7585 127.058C30.5918 126.93 30.4238 126.801 30.2585 126.671C29.7198 126.19 29.0785 125.871 28.4038 125.741C28.6532 125.109 28.7838 124.367 28.7025 123.695C28.5012 122.01 27.8878 120.903 26.5038 119.893C25.4212 119.103 23.9332 119.19 22.6972 119.385C21.6145 119.557 20.5798 120.346 19.8065 121.067C17.9838 122.766 16.9105 125.671 18.2652 127.966C19.3532 129.805 21.7332 130.515 23.7732 130.079C23.7185 130.67 23.7838 131.267 24.0225 131.843C24.3692 132.679 24.4958 132.902 25.0745 133.619C25.6185 134.294 26.6225 134.565 27.4412 134.599C27.7065 134.61 28.3625 134.79 27.5265 134.57C29.0505 134.971 30.5919 134.318 31.4145 132.989C31.9745 132.081 31.9585 131.074 31.9945 130.057C32.0212 129.313 31.8252 128.499 31.4225 127.87C31.2545 127.549 31.0332 127.278 30.7585 127.058Z" fill="#F1AC56"/>
<path d="M55.6112 134.859L55.3499 134.666C54.9979 134.242 54.5672 133.893 54.0699 133.654C53.6445 132.341 52.7725 131.201 51.4899 130.398C50.6739 129.887 49.5605 129.617 48.5445 129.711C48.5685 129.459 48.5872 129.206 48.5712 128.962C48.4699 127.526 47.9645 126.37 47.0112 125.294C45.4379 123.519 42.3752 123.619 40.7846 125.263C39.6139 126.471 39.4765 128.098 40.0779 129.423C39.8019 130.591 40.2272 131.874 41.0299 132.758C41.7192 133.521 42.9645 133.873 43.9779 133.806C43.4605 135.015 43.3565 136.43 43.7059 137.647C44.3979 140.045 46.5859 141.025 48.7992 140.901C49.6072 141.035 50.4432 141.045 51.3179 141.023L51.4459 141.078H51.4512C52.8472 141.651 54.4005 141.521 55.6112 140.31C56.9752 138.945 57.2525 136.177 55.6112 134.859Z" fill="#F1AC56"/>
<path d="M75.1715 133.485C73.8635 133.785 72.5475 134.405 71.4821 135.283C71.1581 135.075 70.8061 134.901 70.4101 134.739C71.9861 135.382 71.0355 134.963 70.6501 134.77C69.6515 134.27 68.9688 134.122 67.8674 134.006C67.0221 133.918 65.9648 134.23 65.2515 134.671C64.4021 135.198 63.4474 136.165 63.2981 137.185C63.1354 138.291 63.1341 138.465 63.2994 139.569C63.4928 140.873 64.8421 141.979 66.0368 142.307C66.4141 142.411 66.8155 142.447 67.2181 142.43L67.3648 142.485C68.2328 142.711 69.0314 142.607 69.8234 142.357C70.0941 142.893 70.4275 143.395 70.8421 143.833C71.3448 145.022 72.3274 146.034 73.7928 146.519C76.4181 147.389 79.7554 146.919 81.9528 145.281C85.2674 142.813 86.4768 138.522 83.5355 135.223C81.5781 133.03 77.8261 132.875 75.1715 133.485Z" fill="#F1AC56"/>
<path d="M59.1089 128.994C57.5769 128.994 56.2969 130.273 56.2969 131.807C56.2969 133.341 57.5769 134.619 59.1089 134.619C60.6409 134.619 61.9209 133.341 61.9209 131.807C61.9209 130.273 60.6409 128.994 59.1089 128.994Z" fill="#F1AC56"/>
<path d="M131.997 143.033C130.606 143.033 129.445 144.193 129.445 145.585C129.445 146.977 130.606 148.137 131.997 148.137C133.387 148.137 134.549 146.977 134.549 145.585C134.549 144.193 133.387 143.033 131.997 143.033Z" fill="#F1AC56"/>
<path d="M33.9675 135.059L33.8689 135.133C32.8089 135.429 32.1275 136.842 33.0995 137.815C34.0755 138.791 35.4968 138.102 35.7875 137.039L35.8555 136.947C36.6635 135.854 35.0595 134.249 33.9675 135.059Z" fill="#F1AC56"/>
<path d="M99.8944 138.958C98.8651 138.502 98.0851 138.247 96.9291 138.221C95.8864 138.198 94.8197 138.625 93.9197 139.091C91.4651 140.362 90.2237 143.747 91.7597 146.155C92.2291 146.89 92.8638 147.469 93.6064 147.841C94.1971 148.474 94.9584 148.945 95.7998 149.125C97.0251 149.385 98.0904 149.174 99.2078 148.622L99.3957 148.501C100.253 147.83 100.358 147.755 99.7078 148.273C100.093 148.034 100.449 147.734 100.785 147.429C101.981 146.335 102.592 145.099 102.746 143.475C102.92 141.658 101.498 139.669 99.8944 138.958Z" fill="#F1AC56"/>
<path d="M126.403 138.51C124.703 136.752 122.319 135.932 119.941 135.683C116.941 135.372 114.48 136.226 112.699 138.75C112.487 139.051 112.308 139.36 112.149 139.674C110.833 139.076 109.263 138.988 107.833 139.236C107.52 139.291 107.224 139.391 106.943 139.52C104.987 140.208 103.661 142.366 103.899 144.422C104.159 146.678 105.531 148.575 107.844 149.088C109.829 149.528 111.733 149.02 113.285 147.736L113.317 147.703C114.321 148.81 115.676 149.643 117.283 149.999C117.691 150.091 118.095 150.136 118.5 150.16C119.385 150.324 120.292 150.28 121.132 150.026C121.265 150.036 121.395 150.05 121.531 150.056C127.205 150.296 130.199 142.435 126.403 138.51Z" fill="#F1AC56"/>
<path d="M147.963 134.682C147.935 134.473 147.897 134.265 147.83 134.059C147.473 132.977 146.407 131.889 145.154 132.023C143.791 132.169 142.609 132.667 141.874 133.911C141.474 134.589 141.383 135.318 141.482 136.01C139.254 136.142 137.411 137.839 137.341 140.122C137.282 140.313 137.231 140.502 137.195 140.69C136.862 142.378 137.65 144.461 139.546 144.83C140.769 145.07 141.851 145.171 143.078 144.937C145.337 144.507 146.699 142.441 146.786 140.251C146.809 139.666 146.667 139.106 146.425 138.591C147.445 137.985 148.121 136.835 148.055 135.669L148.066 135.589C148.055 135.209 147.934 134.367 147.963 134.682Z" fill="#F1AC56"/>
<path d="M189.441 128.601C188.57 128.601 187.765 128.901 187.103 129.389L187.003 129.134C186.874 128.859 186.567 128.002 186.957 129.177C186.767 128.606 186.487 127.961 186.142 127.446C184.535 125.042 182.03 124.046 179.198 124.474C180.846 124.226 178.963 124.437 178.413 124.622C177.575 124.901 176.819 125.294 176.189 125.925C174.982 127.13 174.442 129.009 174.89 130.663L174.831 131.011C174.189 130.977 173.497 131.046 173.017 131.221C171.861 131.642 171.133 132.255 170.405 133.127C169.99 132.994 169.561 132.902 169.107 132.902C167.001 132.902 165.213 134.466 164.839 136.477C164.421 136.094 163.954 135.765 163.511 135.526C162.109 134.771 160.558 134.537 159.009 134.931C157.319 135.361 155.909 137.089 155.975 138.866L155.922 138.933C155.335 139.761 155.374 140.922 155.579 141.854C155.806 142.893 156.693 143.807 157.569 144.359C158.585 145.001 159.921 145.247 161.106 145.127C162.474 144.991 164.117 144.645 165.077 143.551C165.667 142.878 166.146 142.206 166.359 141.317C166.414 141.086 166.431 140.87 166.451 140.653C167.193 141.235 168.109 141.601 169.107 141.601C169.787 141.601 170.425 141.423 171.003 141.135C171.234 141.302 171.478 141.445 171.737 141.565C172.15 142.251 172.938 142.969 173.754 143.101C174.929 143.294 175.891 143.505 177.093 143.265C178.862 142.911 179.978 141.198 180.558 139.63C180.779 139.033 180.851 138.437 180.815 137.862C181.65 137.859 182.474 137.755 183.171 137.599C184.457 137.311 185.703 136.419 186.55 135.29C187.282 136.07 188.307 136.569 189.441 136.569C191.613 136.569 193.425 134.757 193.425 132.585C193.425 130.413 191.613 128.601 189.441 128.601Z" fill="#F1AC56"/>
<path d="M203.255 122.127C202.529 120.802 201.374 120.065 200.01 119.529C198.905 119.093 197.401 118.945 196.279 119.373C194.437 120.073 193.071 121.499 193.071 123.585C193.071 124.425 193.301 125.151 193.686 125.771C193.771 126.755 194.109 127.387 194.71 128.163C195.103 128.671 195.739 129.042 196.325 129.305C197.555 129.862 198.946 130.407 200.303 129.887C201.962 129.255 202.975 128.182 203.586 126.531C204.123 125.079 203.999 123.482 203.255 122.127Z" fill="#F1AC56"/>
<path d="M54.9465 141.532L55.0278 141.731C49.1998 144.158 43.4145 145.571 38.4932 145.986C41.1598 138.319 48.3865 129.652 50.7198 127.652L51.7479 127.199C53.4932 131.092 54.6532 135.838 54.9465 141.532Z" fill="#FDEAB3"/>
<path d="M51.7476 127.199L50.7196 127.653C41.7196 133.986 35.0529 136.199 27.3862 137.533C29.7196 131.319 34.9462 122.986 42.7196 117.426L43.3862 116.479C46.6942 118.958 49.6529 122.451 51.7476 127.199Z" fill="#FDEAB3"/>
<path d="M31.1195 111.692C35.1595 112.104 39.5062 113.599 43.3862 116.479L42.7195 117.426C33.3862 122.759 25.8395 125.319 19.8262 127.986C21.6942 121.731 24.8928 116.146 31.1195 111.692Z" fill="#FDEAB3"/>
<path d="M73.1591 110.973C77.8791 116.866 78.0658 127.825 65.8258 135.986C62.3605 138.306 58.6791 140.211 55.0271 141.731L54.9458 141.533C54.6525 135.838 53.4925 131.093 51.7472 127.199C49.6525 122.451 46.6938 118.958 43.3858 116.479C39.5058 113.599 35.1591 112.105 31.1191 111.693C34.2125 109.479 38.0391 107.558 42.8258 105.973C53.9458 102.306 67.8258 104.306 73.1591 110.973Z" fill="#CD5C29"/>
<path d="M73.9901 121.681C73.4808 124.966 71.4595 129.823 64.7235 134.315C62.0168 136.119 59.0955 137.719 56.0915 139.086C54.4315 122.245 45.0155 113.886 35.6661 111.225C37.8888 109.997 40.4608 108.867 43.4595 107.878C46.8581 106.755 50.6581 106.162 54.4501 106.162C62.0381 106.162 68.6115 108.487 71.6048 112.226C73.6555 114.791 74.5261 118.237 73.9901 121.681ZM51.3555 129.801C52.4315 132.801 53.1715 136.258 53.4888 140.206C49.5461 141.787 45.5168 142.943 41.6688 143.571C44.4808 137.73 49.1968 131.979 51.3555 129.801ZM30.7555 134.822C33.3608 129.565 37.7941 123.402 43.8848 119.05L44.1488 118.77C46.2648 120.65 48.1568 123.025 49.6901 125.951L49.5715 126.01C42.2341 131.173 36.6328 133.462 30.7555 134.822ZM24.2368 123.954C23.9115 124.087 23.5901 124.218 23.2728 124.35C24.9381 120.579 27.6261 116.639 32.4648 113.222C35.2635 113.679 38.0808 114.669 40.7128 116.25C34.4355 119.753 29.0275 121.986 24.2368 123.954ZM54.4501 102.162C50.2381 102.162 46.0035 102.825 42.2061 104.078C28.9035 108.469 21.4128 115.663 17.9168 127.409C17.6941 128.155 17.9261 128.966 18.5128 129.482C19.0995 129.995 19.9328 130.123 20.6448 129.807C22.2368 129.099 23.9395 128.399 25.7555 127.654C27.8088 126.81 29.9701 125.922 32.2661 124.909C29.1035 129.033 26.8355 133.321 25.5181 136.83C25.2648 137.502 25.3928 138.258 25.8501 138.81C26.3075 139.362 27.0208 139.634 27.7328 139.503C32.4861 138.677 36.9995 137.498 41.9941 135.137C39.8488 138.299 37.8035 141.893 36.6101 145.322C36.3875 145.961 36.5048 146.669 36.9194 147.205C37.3008 147.695 37.8848 147.979 38.4995 147.979L38.6661 147.973C47.8128 147.21 58.3835 143.349 66.9421 137.643C74.8875 132.346 77.3101 126.373 77.9435 122.294C78.6488 117.746 77.4768 113.165 74.7275 109.727C70.9381 104.99 63.3581 102.162 54.4501 102.162Z" fill="#100F0D"/>
<path d="M179.813 105.973C184.6 107.558 188.44 109.479 191.533 111.693C187.493 112.093 183.134 113.586 179.253 116.491C175.946 118.973 172.986 122.466 170.906 127.211C169.16 131.105 168.013 135.838 167.706 141.533L167.626 141.746C163.96 140.225 160.28 138.306 156.813 135.986C144.586 127.825 144.773 116.866 149.48 110.973C154.813 104.306 168.706 102.306 179.813 105.973Z" fill="#CD5C29"/>
<path d="M171.919 127.652C174.253 129.652 181.479 138.319 184.146 145.986C179.239 145.571 173.453 144.158 167.626 141.746L167.706 141.532C168.013 135.838 169.159 131.104 170.906 127.211L171.919 127.652Z" fill="#FDEAB3"/>
<path d="M179.92 117.426C187.694 122.986 192.92 131.319 195.253 137.533C187.586 136.199 180.92 133.986 171.92 127.653L170.906 127.211C172.986 122.466 175.946 118.973 179.253 116.491L179.92 117.426Z" fill="#FDEAB3"/>
<path d="M191.533 111.692C197.76 116.146 200.96 121.731 202.813 127.986C196.813 125.319 189.253 122.759 179.92 117.426L179.253 116.491C183.134 113.586 187.493 112.092 191.533 111.692Z" fill="#FDEAB3"/>
<path d="M198.409 123.954C193.618 121.986 188.209 119.753 181.931 116.25C184.565 114.669 187.381 113.679 190.181 113.222C195.019 116.639 197.706 120.579 199.371 124.35C199.054 124.218 198.734 124.087 198.409 123.954ZM191.889 134.822C186.013 133.462 180.411 131.173 173.074 126.01L172.953 125.955C174.485 123.026 176.379 120.651 178.495 118.77L178.759 119.05C184.851 123.402 189.285 129.565 191.889 134.822ZM180.975 143.571C177.129 142.943 173.098 141.787 169.155 140.206C169.474 136.258 170.213 132.801 171.29 129.801C173.447 131.979 178.163 137.73 180.975 143.571ZM148.654 121.681C148.119 118.237 148.989 114.791 151.039 112.227C154.033 108.487 160.606 106.162 168.195 106.162C171.986 106.162 175.787 106.755 179.186 107.878C182.185 108.867 184.755 109.997 186.978 111.225C177.63 113.886 168.213 122.245 166.553 139.086C163.549 137.719 160.629 136.119 157.921 134.315C151.186 129.823 149.163 124.966 148.654 121.681ZM204.637 127.101C201.101 115.538 193.626 108.431 180.438 104.078C176.641 102.825 172.407 102.162 168.195 102.162C159.287 102.162 151.706 104.99 147.918 109.727C145.167 113.165 143.995 117.746 144.701 122.294C145.334 126.373 147.757 132.346 155.702 137.643C164.261 143.349 174.831 147.21 183.978 147.973L184.145 147.979H184.159C185.254 148.013 186.173 147.089 186.171 145.979C186.171 145.631 186.083 145.303 185.926 145.018C184.721 141.681 182.733 138.206 180.65 135.137C185.645 137.498 190.158 138.677 194.913 139.503C195.625 139.634 196.337 139.362 196.795 138.81C197.253 138.258 197.379 137.502 197.127 136.83C195.809 133.321 193.541 129.033 190.378 124.909C192.675 125.922 194.835 126.81 196.889 127.654C198.705 128.399 200.409 129.099 201.999 129.807C202.259 129.923 202.537 129.979 202.811 129.979H202.838C203.943 129.979 204.838 129.083 204.838 127.979C204.838 127.663 204.766 127.366 204.637 127.101Z" fill="#100F0D"/>
</g>
<defs>
<clipPath id="clip0_86_952">
<rect width="221.81" height="164.85" fill="white" transform="translate(0.430176 3.60864)"/>
</clipPath>
</defs>
</svg>
