<svg width="223" height="170" viewBox="0 0 223 170" fill="none" xmlns="http://www.w3.org/2000/svg">
<g clip-path="url(#clip0_13_6928)">
<path d="M203.96 122.736C203.234 121.411 202.079 120.673 200.715 120.137C199.61 119.701 198.106 119.553 196.984 119.981C195.142 120.681 193.776 122.108 193.776 124.193C193.776 125.033 194.006 125.76 194.391 126.38C194.476 127.364 194.814 127.996 195.415 128.772C195.808 129.28 196.444 129.651 197.03 129.913C198.26 130.471 199.651 131.016 201.008 130.496C202.667 129.864 203.682 128.791 204.292 127.14C204.828 125.688 204.704 124.091 203.96 122.736Z" fill="#F1AC56"/>
<path d="M168.333 93.2852C173.879 89.2065 182.986 92.2199 182.986 102.033C185.653 96.5265 197.306 97.8598 196.706 107.087C200.319 104.7 205.306 106.86 205.146 111.967C210.039 109.34 219.026 114.74 217.067 122.712C214.413 121.847 211.279 122.3 208.706 124.42C207.146 118.353 200.746 116.473 195.146 116.86C190.787 117.165 187.093 120.46 185.693 123.913C183.253 122.379 180.039 122.045 176.479 122.86C170.373 124.246 166.813 128.033 166.039 133.3C163.306 128.193 155.813 130.353 154.919 135.087C152.986 128.193 146.146 126.193 141.479 126.7C137.466 127.127 132.319 129.367 130.799 135.247C127.479 132.059 122.106 129.712 116.253 130.193C111.853 130.553 107.773 132.82 105.279 136.165C104.613 130.285 93.226 128.073 88.9607 133.593C86.906 131.193 83.4393 129.34 79.6527 129.02C75.866 128.712 70.7994 129.687 67.8794 133.14C67.0527 127.66 59.5327 124.285 54.306 126.285C52.666 120.045 40.266 115.527 34.4794 125.753C33.8127 119.527 28.9194 117.087 24.4794 117.087C17.7994 117.087 14.2527 122.193 14.0393 125.3C12.4393 124.407 10.6527 124.193 8.94604 124.526C6.78737 116.646 16.0793 110.605 21.3727 114.193C20.0393 106.193 29.8127 102.86 34.3193 108.193C32.4927 101.033 39.9607 95.9799 45.7594 98.1132C47.7874 90.7119 60.186 86.3785 66.4794 94.6332C67.3727 89.2999 72.5727 85.8065 78.986 86.6999C81.9727 87.1132 84.3194 88.6052 85.826 90.4732C88.0394 84.4465 97.4007 83.1798 100.479 88.5265C102.413 77.7665 120.773 72.8318 128.146 84.2198C130.599 82.9798 133.666 82.6185 137.146 83.5265C142.706 84.9798 145.653 89.6865 146.039 93.2999C149.426 83.5265 165.279 85.2999 168.319 93.2852H168.333Z" fill="#D87639"/>
<path d="M34.4793 125.753C40.2659 115.527 52.6659 120.045 54.3059 126.285C59.5326 124.285 67.0526 127.66 67.8793 133.14C70.7993 129.687 75.8659 128.712 79.6526 129.02C83.4392 129.34 86.9059 131.193 88.9606 133.593C93.2259 128.073 104.613 130.285 105.279 136.165C107.773 132.82 111.853 130.553 116.253 130.193C122.106 129.712 127.479 132.059 130.799 135.247C132.319 129.367 137.466 127.127 141.479 126.7C146.146 126.193 152.986 128.193 154.919 135.087C155.813 130.353 163.306 128.193 166.039 133.3C166.813 128.033 170.373 124.246 176.479 122.86C180.039 122.045 183.253 122.379 185.693 123.913C187.027 120.621 190.457 117.504 194.55 116.952C191.175 113.687 184.862 114.157 182.986 118.033C182.986 108.22 173.879 105.207 168.333 109.285H168.319C165.279 101.3 149.426 99.5265 146.039 109.3C145.653 105.687 142.706 100.98 137.146 99.5265C133.666 98.6185 130.599 98.9798 128.146 100.22C120.773 88.8318 102.413 93.7665 100.479 104.526C97.4006 99.1798 88.0393 100.447 85.8259 106.473C84.3193 104.605 81.9726 103.113 78.9859 102.7C72.5726 101.807 67.3726 105.3 66.4793 110.633C60.1859 102.379 47.7873 106.712 45.7593 114.113C39.9606 111.98 32.4926 117.033 34.3192 124.193L34.1513 124.025C34.2953 124.569 34.4126 125.137 34.4793 125.753Z" fill="#B74F2F"/>
<path d="M193.366 127.304C193.366 138.532 159.787 147.637 118.366 147.637C76.9457 147.637 43.3657 138.532 43.3657 127.304C43.3657 116.076 76.9457 106.971 118.366 106.971C159.787 106.971 193.366 116.076 193.366 127.304Z" fill="#612D26"/>
<path d="M217.067 122.712C220.546 123.832 223.239 127.193 222.919 131.967C222.426 139.513 217.466 141.767 212.359 141.033C212.359 142.392 212.053 143.847 211.373 145.3C209.014 150.407 200.706 152.42 192.706 148.86C190.734 159.46 176.706 160.045 171.253 156.619C168.506 162.847 159.401 164.633 154.533 160.673C152.439 166.873 141.239 168.113 137.306 161.86C133.653 167.193 127.426 169.86 117.306 168.86C111.734 168.3 108.306 166.447 106.279 164.153C97.586 172.433 82.9326 167.02 80.6393 159.86C78.3193 163.02 72.986 165.02 66.4793 163.86C62.8393 163.207 59.1726 160.74 57.5193 157.153C52.2126 163.527 39.2526 160.285 38.3193 152.527C32.0926 154.807 20.6393 154.193 16.986 148.7C15.706 146.78 14.9727 144.913 14.666 143.153C6.61266 143.767 1.43934 140.18 1.14601 134.193C0.906008 129.34 4.71934 125.313 8.94601 124.527C10.6527 124.193 12.4393 124.407 14.0393 125.3C14.2526 122.193 17.7993 117.087 24.4793 117.087C28.9193 117.087 33.8127 119.527 34.4793 125.753C40.266 115.527 52.666 120.045 54.306 126.285C59.5326 124.285 67.0527 127.66 67.8793 133.14C70.7993 129.687 75.866 128.712 79.6526 129.02C83.4393 129.34 86.906 131.193 88.9606 133.593C93.226 128.073 104.613 130.285 105.279 136.165C107.773 132.82 111.853 130.553 116.253 130.193C122.106 129.712 127.479 132.059 130.799 135.247C132.319 129.367 137.466 127.127 141.479 126.7C146.146 126.193 152.986 128.193 154.919 135.087C155.813 130.353 163.306 128.193 166.039 133.3C166.813 128.033 170.373 124.247 176.479 122.86C180.039 122.045 183.253 122.379 185.693 123.913C187.093 120.46 190.787 117.165 195.146 116.86C200.746 116.473 207.146 118.353 208.706 124.42C211.279 122.3 214.413 121.847 217.067 122.712Z" fill="#E88D3A"/>
<path d="M217.685 122.971C217.114 129.941 212.454 132.035 207.649 131.345C207.649 132.641 207.357 134.027 206.71 135.411C204.461 140.277 196.543 142.197 188.919 138.804C187.038 148.907 173.67 149.465 168.473 146.2C165.854 152.135 157.178 153.837 152.538 150.061C150.542 155.971 139.87 157.153 136.121 151.193C132.637 156.276 126.703 158.819 117.059 157.865C111.747 157.331 108.481 155.564 106.55 153.379C98.2645 161.269 84.2979 156.111 82.1139 149.288C79.9032 152.299 74.8192 154.205 68.6192 153.099C65.1485 152.477 61.6539 150.127 60.0792 146.708C55.0206 152.781 42.6712 149.695 41.7805 142.299C35.8459 144.471 24.9299 143.887 21.4486 138.651C20.2286 136.821 19.5285 135.043 19.2379 133.367C11.8325 133.929 6.99655 130.763 6.41255 125.415C3.31922 127.02 0.95655 130.343 1.14588 134.193C1.43922 140.18 6.61254 143.767 14.6659 143.153C14.9725 144.913 15.7059 146.78 16.9859 148.7C20.6392 154.193 32.0925 154.807 38.3192 152.527C39.2525 160.285 52.2125 163.527 57.5192 157.153C59.1725 160.74 62.8392 163.207 66.4792 163.86C72.9859 165.02 78.3192 163.02 80.6392 159.86C82.9325 167.02 97.5859 172.433 106.279 164.153C108.306 166.447 111.734 168.3 117.306 168.86C127.426 169.86 133.653 167.193 137.306 161.86C141.239 168.113 152.439 166.873 154.533 160.673C159.401 164.633 168.506 162.847 171.253 156.619C176.706 160.045 190.734 159.46 192.706 148.86C200.706 152.42 209.014 150.407 211.373 145.3C212.053 143.847 212.359 142.392 212.359 141.033C217.466 141.767 222.426 139.513 222.919 131.967C223.221 127.487 220.854 124.275 217.685 122.971Z" fill="#D87639"/>
<path d="M30.939 127.263L30.963 127.28L31.019 127.32L30.939 127.263Z" fill="#F1AC56"/>
<path d="M31.4631 127.667C31.2965 127.539 31.1285 127.409 30.9631 127.28C30.4245 126.799 29.7831 126.48 29.1084 126.349C29.3578 125.717 29.4885 124.976 29.4071 124.304C29.2058 122.619 28.5924 121.512 27.2084 120.501C26.1271 119.712 24.6378 119.799 23.4018 119.993C22.3191 120.165 21.2844 120.955 20.5111 121.676C18.6884 123.375 17.6151 126.28 18.9698 128.575C20.0578 130.413 22.4378 131.124 24.4778 130.688C24.4231 131.279 24.4885 131.876 24.7271 132.452C25.0738 133.288 25.2005 133.511 25.7791 134.228C26.3231 134.903 27.3271 135.173 28.1458 135.208C28.4111 135.219 29.0672 135.399 28.2312 135.179C29.7552 135.58 31.2964 134.927 32.1191 133.597C32.6804 132.689 32.6631 131.683 32.6991 130.665C32.7258 129.921 32.5298 129.108 32.1271 128.479C31.9605 128.157 31.7378 127.887 31.4631 127.667Z" fill="#F1AC56"/>
<path d="M56.3167 135.468L56.0553 135.275C55.7033 134.851 55.2727 134.501 54.7753 134.263C54.35 132.949 53.478 131.809 52.1954 131.007C51.3794 130.496 50.266 130.225 49.25 130.32C49.274 130.068 49.294 129.815 49.2767 129.571C49.1754 128.135 48.67 126.979 47.7167 125.903C46.1433 124.128 43.0807 124.228 41.49 125.872C40.3194 127.08 40.1833 128.707 40.7833 130.032C40.5073 131.2 40.9327 132.483 41.7354 133.367C42.4247 134.129 43.67 134.481 44.6833 134.415C44.166 135.624 44.062 137.039 44.4113 138.256C45.1033 140.653 47.2914 141.633 49.5047 141.509C50.3127 141.644 51.1487 141.653 52.0234 141.632L52.1514 141.687H52.1594C53.5527 142.26 55.106 142.129 56.3167 140.919C57.682 139.553 57.958 136.785 56.3167 135.468Z" fill="#F1AC56"/>
<path d="M75.8765 134.093C74.5699 134.393 73.2526 135.013 72.1872 135.892C71.8632 135.684 71.5112 135.509 71.1152 135.348C72.6912 135.991 71.7405 135.572 71.3552 135.379C70.3565 134.879 69.6738 134.731 68.5725 134.615C67.7272 134.527 66.6699 134.839 65.9566 135.28C65.1072 135.807 64.1525 136.773 64.0032 137.793C63.8405 138.9 63.8392 139.073 64.0045 140.177C64.1979 141.481 65.5472 142.588 66.7418 142.916C67.1192 143.02 67.5206 143.056 67.9232 143.039L68.0712 143.093C68.9379 143.32 69.7379 143.216 70.5286 142.965C70.7992 143.501 71.1325 144.004 71.5472 144.441C72.0499 145.631 73.0326 146.643 74.4979 147.128C77.1232 147.997 80.4605 147.528 82.6579 145.889C85.9725 143.421 87.1832 139.13 84.2405 135.832C82.2832 133.638 78.5312 133.484 75.8765 134.093Z" fill="#F1AC56"/>
<path d="M59.8139 129.603C58.2819 129.603 57.002 130.882 57.002 132.416C57.002 133.95 58.2819 135.228 59.8139 135.228C61.3473 135.228 62.6273 133.95 62.6273 132.416C62.6273 130.882 61.3473 129.603 59.8139 129.603Z" fill="#F1AC56"/>
<path d="M132.702 143.641C131.311 143.641 130.15 144.801 130.15 146.193C130.15 147.585 131.311 148.745 132.702 148.745C134.093 148.745 135.254 147.585 135.254 146.193C135.254 144.801 134.093 143.641 132.702 143.641Z" fill="#F1AC56"/>
<path d="M34.6723 135.668L34.5736 135.741C33.515 136.037 32.8323 137.451 33.8043 138.424C34.7803 139.4 36.2017 138.711 36.4923 137.648L36.5603 137.556C37.3683 136.463 35.7643 134.857 34.6723 135.668Z" fill="#F1AC56"/>
<path d="M100.599 139.567C99.571 139.111 98.7896 138.856 97.6336 138.829C96.5909 138.807 95.5243 139.233 94.6243 139.7C92.1696 140.971 90.9283 144.356 92.4643 146.764C92.9337 147.499 93.5683 148.077 94.311 148.449C94.9016 149.083 95.663 149.553 96.5043 149.733C97.7296 149.993 98.795 149.783 99.9123 149.231L100.1 149.109C100.959 148.439 101.063 148.364 100.412 148.881C100.798 148.643 101.154 148.343 101.49 148.037C102.686 146.944 103.296 145.708 103.451 144.084C103.624 142.267 102.203 140.277 100.599 139.567Z" fill="#F1AC56"/>
<path d="M127.107 139.118C125.407 137.361 123.023 136.541 120.646 136.292C117.646 135.981 115.185 136.834 113.405 139.358C113.191 139.66 113.014 139.969 112.854 140.282C111.538 139.685 109.967 139.597 108.538 139.845C108.225 139.9 107.928 140 107.647 140.129C105.691 140.817 104.366 142.974 104.603 145.03C104.863 147.286 106.237 149.184 108.549 149.697C110.534 150.137 112.438 149.629 113.99 148.345L114.022 148.312C115.026 149.418 116.381 150.252 117.987 150.608C118.395 150.7 118.799 150.745 119.205 150.769C120.09 150.933 120.996 150.889 121.836 150.634C121.97 150.645 122.099 150.658 122.235 150.665C127.91 150.905 130.905 143.044 127.107 139.118Z" fill="#F1AC56"/>
<path d="M148.669 135.291C148.641 135.081 148.602 134.873 148.535 134.668C148.178 133.585 147.113 132.497 145.859 132.632C144.497 132.777 143.314 133.276 142.579 134.52C142.181 135.197 142.089 135.927 142.187 136.619C139.961 136.751 138.117 138.448 138.046 140.731C137.987 140.921 137.937 141.111 137.901 141.299C137.567 142.987 138.355 145.069 140.251 145.439C141.474 145.679 142.557 145.78 143.783 145.545C146.042 145.116 147.405 143.049 147.491 140.86C147.515 140.275 147.373 139.715 147.13 139.2C148.15 138.593 148.826 137.444 148.761 136.277L148.771 136.197C148.761 135.817 148.639 134.976 148.669 135.291Z" fill="#F1AC56"/>
<path d="M190.146 129.209C189.275 129.209 188.47 129.509 187.808 129.997L187.708 129.743C187.579 129.468 187.273 128.611 187.662 129.785C187.473 129.215 187.193 128.569 186.849 128.055C185.241 125.651 182.735 124.655 179.905 125.083C181.551 124.835 179.669 125.045 179.118 125.231C178.281 125.509 177.524 125.903 176.894 126.533C175.687 127.739 175.147 129.617 175.595 131.272L175.536 131.62C174.894 131.585 174.202 131.655 173.722 131.829C172.566 132.251 171.838 132.864 171.11 133.736C170.695 133.603 170.266 133.511 169.813 133.511C167.706 133.511 165.918 135.075 165.544 137.085C165.127 136.703 164.659 136.373 164.216 136.135C162.814 135.38 161.263 135.145 159.714 135.54C158.024 135.969 156.614 137.697 156.682 139.475L156.627 139.541C156.04 140.369 156.079 141.531 156.285 142.463C156.511 143.501 157.398 144.416 158.274 144.968C159.29 145.609 160.627 145.856 161.811 145.736C163.179 145.6 164.822 145.253 165.782 144.16C166.373 143.487 166.851 142.815 167.065 141.925C167.119 141.695 167.137 141.479 167.157 141.261C167.898 141.844 168.814 142.209 169.813 142.209C170.493 142.209 171.13 142.032 171.708 141.744C171.939 141.911 172.183 142.053 172.442 142.173C172.855 142.86 173.643 143.577 174.46 143.709C175.634 143.903 176.597 144.113 177.798 143.873C179.567 143.52 180.683 141.807 181.263 140.239C181.484 139.641 181.557 139.045 181.521 138.471C182.355 138.468 183.181 138.364 183.877 138.208C185.162 137.92 186.408 137.028 187.255 135.899C187.987 136.679 189.014 137.177 190.146 137.177C192.318 137.177 194.13 135.365 194.13 133.193C194.13 131.021 192.318 129.209 190.146 129.209Z" fill="#F1AC56"/>
<mask id="mask0_13_6928" style="mask-type:luminance" maskUnits="userSpaceOnUse" x="61" y="98" width="103" height="50">
<path d="M161.638 138.443C157.304 125.309 149.891 114.815 140.531 107.883C132.291 101.789 122.544 98.4427 112.038 98.4427C100.584 98.4427 90.0245 102.428 81.3458 109.616C73.0125 116.523 66.4245 126.363 62.4378 138.443C62.2112 139.149 61.9845 139.883 61.7578 140.643C75.5178 144.936 95.7712 147.643 118.371 147.643C135.144 147.643 150.638 146.149 163.131 143.629C162.651 141.749 162.158 140.016 161.638 138.443Z" fill="white"/>
</mask>
<g mask="url(#mask0_13_6928)">
<path d="M112.039 244.591C123.966 244.591 161.818 242.516 170.632 236.812C169.078 197.923 165.49 156.487 159.744 139.069C152.02 115.66 134.055 100.44 112.039 100.44C90.0258 100.44 72.0578 115.66 64.3364 139.069C58.5884 156.487 55.0031 197.923 53.4458 236.812C62.2605 242.516 100.115 244.591 112.039 244.591Z" fill="#CD5C29"/>
<path d="M60.7791 238.18C62.2471 201.504 65.6298 162.427 71.0498 145.999C78.3338 123.923 95.2791 109.567 116.039 109.567C136.802 109.567 153.747 123.923 161.031 145.999C162.023 149.011 161.244 143.617 159.744 139.069C152.02 115.66 134.055 100.44 112.039 100.44C90.0258 100.44 72.0578 115.66 64.3364 139.069C58.5884 156.487 55.0031 197.923 53.4458 236.812C56.5391 238.813 62.8178 239.499 60.7791 238.18Z" fill="#E6894A"/>
<path d="M55.4952 235.676C65.1672 240.525 99.4138 242.591 112.039 242.591C124.664 242.591 158.914 240.525 168.586 235.676C166.724 190.3 162.719 154.472 157.844 139.696C150.263 116.716 132.711 102.44 112.039 102.44C91.3671 102.44 73.8152 116.716 66.2352 139.696C61.3592 154.472 57.3538 190.3 55.4952 235.676ZM112.039 246.591C104.711 246.591 62.5685 245.097 52.3592 238.491C51.7658 238.107 51.4192 237.437 51.4485 236.732C52.3365 214.497 55.1872 160.412 62.4352 138.443C70.5752 113.768 89.5831 98.44 112.039 98.44C134.498 98.44 153.503 113.768 161.643 138.443C168.891 160.412 171.742 214.497 172.632 236.732C172.659 237.437 172.312 238.107 171.719 238.491C161.514 245.097 119.37 246.591 112.039 246.591Z" fill="#100F0D"/>
<path d="M68.9565 143.156C76.5632 144.281 90.5392 147.019 99.4739 150.604C102.597 143.525 103.219 135.397 100.7 127.792C100.771 132.064 100.258 135.311 99.4192 137.729C87.9565 132.272 77.0885 129.387 73.2445 128.572C71.3725 131.699 69.1899 138.288 68.9565 143.156Z" fill="#100F0D"/>
<path d="M155.123 143.156C147.517 144.281 133.542 147.019 124.605 150.604C121.485 143.525 120.859 135.397 123.378 127.792C123.307 132.064 123.821 135.311 124.659 137.729C136.123 132.272 146.993 129.387 150.837 128.572C152.709 131.699 154.891 138.288 155.123 143.156Z" fill="#100F0D"/>
</g>
<path d="M55.9633 138.884L55.818 139.043C51.1753 134.764 47.4713 130.099 45.0366 125.803C53.118 125.019 64.0113 127.957 66.8047 129.24L67.646 129.984C64.8393 133.199 61.014 136.237 55.9633 138.884Z" fill="#FDEAB3"/>
<path d="M67.646 129.984L66.8046 129.24C57.2873 123.713 52.4873 118.585 48.0713 112.179C54.69 111.699 64.4459 112.96 72.7473 117.696L73.8859 117.905C73.0179 121.945 71.0806 126.096 67.646 129.984Z" fill="#FDEAB3"/>
<path d="M73.1017 104.761C74.4163 108.603 74.8776 113.176 73.8856 117.905L72.747 117.696C63.9976 111.448 58.5163 105.664 53.5776 101.319C60.0416 100.399 66.4537 100.968 73.1017 104.761Z" fill="#FDEAB3"/>
<path d="M91.3418 142.645C87.9632 149.397 78.0858 154.152 65.5552 146.447C61.9978 144.269 58.7272 141.723 55.8179 139.043L55.9632 138.884C61.0139 136.237 64.8392 133.199 67.6459 129.984C71.0805 126.096 73.0178 121.945 73.8858 117.905C74.8778 113.176 74.4165 108.603 73.1019 104.761C76.4059 106.645 79.7525 109.319 83.1952 113.001C91.1779 121.568 95.1672 135.012 91.3418 142.645Z" fill="#CD5C29"/>
<path d="M81.9604 147.879C78.7658 148.791 73.5085 148.987 66.6098 144.747C63.8391 143.043 61.1644 141.059 58.6671 138.901C73.2684 130.349 76.9218 118.3 75.4271 108.696C77.4738 110.201 79.5751 112.063 81.7298 114.373C84.1698 116.989 86.2964 120.196 87.8831 123.639C91.0578 130.532 91.6951 137.475 89.5524 141.759C88.0804 144.693 85.3151 146.925 81.9604 147.879ZM65.1205 130.715C62.8445 132.948 60.0138 135.067 56.5604 137.007C53.4738 134.087 50.7378 130.911 48.5604 127.677C55.0418 127.789 62.2378 129.667 65.1205 130.715ZM51.9431 114.105C57.8045 114.272 65.2578 115.721 71.7578 119.433L72.1231 119.556C71.3018 122.264 69.9351 124.977 67.9191 127.593L67.8151 127.509C60.0578 123.004 55.6351 118.875 51.9431 114.105ZM59.0858 103.639C58.8284 103.397 58.5751 103.161 58.3231 102.929C62.4458 102.864 67.1485 103.656 72.2765 106.623C73.0311 109.356 73.3098 112.328 72.9765 115.38C67.1698 111.145 62.8778 107.165 59.0858 103.639ZM91.5178 121.967C89.7551 118.14 87.3831 114.571 84.6565 111.647C75.1045 101.399 65.4351 97.604 53.3045 99.3413C52.5311 99.452 51.8938 100.003 51.6698 100.751C51.4484 101.499 51.6831 102.311 52.2685 102.824C53.5751 103.973 54.9245 105.228 56.3618 106.565C57.9871 108.077 59.6951 109.668 61.5778 111.331C56.5084 110.183 51.6644 109.917 47.9244 110.188C47.2111 110.24 46.5778 110.671 46.2658 111.319C45.9591 111.964 46.0084 112.725 46.4244 113.319C49.1644 117.289 52.1231 120.896 56.3565 124.445C52.5858 123.82 48.4658 123.464 44.8538 123.816C44.1805 123.88 43.5858 124.283 43.2711 124.883C42.9871 125.435 42.9711 126.085 43.2298 126.643L43.3045 126.792C47.8258 134.78 55.7524 142.767 64.5164 148.153C72.6511 153.155 79.0884 152.857 83.0604 151.727C87.4844 150.465 91.1564 147.485 93.1271 143.548C95.8471 138.125 95.2418 130.056 91.5178 121.967Z" fill="#100F0D"/>
<path d="M168.115 138.884L168.261 139.043C172.905 134.764 176.607 130.099 179.042 125.803C170.963 125.019 160.069 127.957 157.277 129.24L156.433 129.984C159.239 133.199 163.066 136.237 168.115 138.884Z" fill="#FDEAB3"/>
<path d="M156.433 129.984L157.277 129.24C166.793 123.713 171.591 118.585 176.011 112.179C169.391 111.699 159.633 112.96 151.334 117.696L150.193 117.905C151.064 121.945 152.998 126.096 156.433 129.984Z" fill="#FDEAB3"/>
<path d="M150.976 104.761C149.662 108.603 149.2 113.176 150.192 117.905L151.334 117.696C160.08 111.448 165.563 105.664 170.5 101.319C164.039 100.399 157.627 100.968 150.976 104.761Z" fill="#FDEAB3"/>
<path d="M132.738 142.645C136.118 149.397 145.993 154.152 158.526 146.447C162.083 144.269 165.354 141.723 168.261 139.043L168.115 138.884C163.066 136.237 159.239 133.199 156.433 129.984C152.998 126.096 151.063 121.945 150.193 117.905C149.201 113.176 149.662 108.603 150.977 104.761C147.673 106.645 144.329 109.319 140.886 113.001C132.905 121.568 128.914 135.012 132.738 142.645Z" fill="#CD5C29"/>
<path d="M134.526 141.759C132.383 137.475 133.021 130.532 136.195 123.639C137.782 120.196 139.908 116.989 142.35 114.373C144.503 112.063 146.607 110.201 148.651 108.696C147.157 118.3 150.81 130.349 165.414 138.901C162.916 141.059 160.239 143.043 157.469 144.747C150.573 148.987 145.315 148.791 142.118 147.879C138.766 146.925 136.001 144.693 134.526 141.759ZM175.521 127.677C173.342 130.911 170.605 134.087 167.518 137.007C164.066 135.067 161.235 132.948 158.961 130.715C161.842 129.667 169.039 127.789 175.521 127.677ZM156.263 127.509L156.162 127.593C154.143 124.977 152.779 122.264 151.957 119.556C152.078 119.516 152.203 119.5 152.321 119.433C158.821 115.721 166.274 114.272 172.138 114.105C168.446 118.875 164.023 123.004 156.263 127.509ZM151.105 115.38C150.769 112.328 151.05 109.356 151.805 106.623C156.933 103.656 161.635 102.864 165.755 102.929C165.506 103.161 165.25 103.397 164.995 103.639C161.201 107.165 156.911 111.145 151.105 115.38ZM130.951 143.548C132.925 147.485 136.594 150.465 141.021 151.727C144.99 152.857 151.43 153.155 159.566 148.153C168.326 142.767 176.255 134.78 180.774 126.792L180.85 126.643C181.107 126.085 181.094 125.435 180.807 124.883C180.495 124.283 179.902 123.88 179.227 123.816C175.612 123.464 171.492 123.82 167.724 124.445C171.959 120.896 174.917 117.289 177.657 113.319C178.071 112.725 178.123 111.964 177.813 111.319C177.503 110.671 176.87 110.24 176.154 110.188C172.414 109.917 167.571 110.183 162.503 111.331C164.383 109.668 166.094 108.077 167.719 106.565C169.156 105.228 170.503 103.973 171.813 102.824C172.399 102.311 172.63 101.499 172.408 100.751C172.184 100.003 171.547 99.452 170.777 99.3413C158.646 97.604 148.976 101.399 139.422 111.647C136.698 114.571 134.323 118.14 132.563 121.967C128.837 130.056 128.235 138.125 130.951 143.548Z" fill="#100F0D"/>
<path d="M217.067 122.712C220.546 123.832 223.239 127.193 222.919 131.967C222.426 139.513 217.466 141.767 212.359 141.033C212.359 142.392 212.053 143.847 211.373 145.3C209.014 150.407 200.706 152.42 192.706 148.86C190.734 159.46 176.706 160.045 171.253 156.619C168.506 162.847 159.401 164.633 154.533 160.673C152.439 166.873 141.239 168.113 137.306 161.86C133.653 167.193 127.426 169.86 117.306 168.86C111.734 168.3 108.306 166.447 106.279 164.153C97.586 172.433 82.9326 167.02 80.6393 159.86C78.3193 163.02 72.986 165.02 66.4793 163.86C62.8393 163.207 59.1726 160.74 57.5193 157.153C52.2126 163.527 39.2526 160.285 38.3193 152.527C32.0926 154.807 20.6393 154.193 16.986 148.7C15.706 146.78 14.9727 144.913 14.666 143.153C6.61266 143.767 1.43934 140.18 1.14601 134.193C0.906008 129.34 4.71934 125.313 8.94601 124.527C10.6527 124.193 12.4393 124.407 14.0393 125.3C14.2526 122.193 17.7993 117.087 24.4793 117.087C28.9193 117.087 33.8127 119.527 34.4793 125.753C40.266 115.527 52.666 120.045 54.306 126.285C59.5326 124.285 67.0527 127.66 67.8793 133.14C70.7993 129.687 75.866 128.712 79.6526 129.02C83.4393 129.34 86.906 131.193 88.9606 133.593C93.226 128.073 104.613 130.285 105.279 136.165C107.773 132.82 111.853 130.553 116.253 130.193C122.106 129.712 127.479 132.059 130.799 135.247C132.319 129.367 137.466 127.127 141.479 126.7C146.146 126.193 152.986 128.193 154.919 135.087C155.813 130.353 163.306 128.193 166.039 133.3C166.813 128.033 170.373 124.247 176.479 122.86C180.039 122.045 183.253 122.379 185.693 123.913C187.093 120.46 190.787 117.165 195.146 116.86C200.746 116.473 207.146 118.353 208.706 124.42C211.279 122.3 214.413 121.847 217.067 122.712Z" fill="#E88D3A"/>
<path d="M217.685 122.971C217.114 129.941 212.454 132.035 207.649 131.345C207.649 132.641 207.357 134.027 206.71 135.411C204.461 140.277 196.543 142.197 188.919 138.804C187.038 148.907 173.67 149.465 168.473 146.2C165.854 152.135 157.178 153.837 152.538 150.061C150.542 155.971 139.87 157.153 136.121 151.193C132.637 156.276 126.703 158.819 117.059 157.865C111.747 157.331 108.481 155.564 106.55 153.379C98.2645 161.269 84.2979 156.111 82.1139 149.288C79.9032 152.299 74.8192 154.205 68.6192 153.099C65.1485 152.477 61.6539 150.127 60.0792 146.708C55.0206 152.781 42.6712 149.695 41.7805 142.299C35.8459 144.471 24.9299 143.887 21.4486 138.651C20.2286 136.821 19.5285 135.043 19.2379 133.367C11.8325 133.929 6.99655 130.763 6.41255 125.415C3.31922 127.02 0.95655 130.343 1.14588 134.193C1.43922 140.18 6.61254 143.767 14.6659 143.153C14.9725 144.913 15.7059 146.78 16.9859 148.7C20.6392 154.193 32.0925 154.807 38.3192 152.527C39.2525 160.285 52.2125 163.527 57.5192 157.153C59.1725 160.74 62.8392 163.207 66.4792 163.86C72.9859 165.02 78.3192 163.02 80.6392 159.86C82.9325 167.02 97.5859 172.433 106.279 164.153C108.306 166.447 111.734 168.3 117.306 168.86C127.426 169.86 133.653 167.193 137.306 161.86C141.239 168.113 152.439 166.873 154.533 160.673C159.401 164.633 168.506 162.847 171.253 156.619C176.706 160.045 190.734 159.46 192.706 148.86C200.706 152.42 209.014 150.407 211.373 145.3C212.053 143.847 212.359 142.392 212.359 141.033C217.466 141.767 222.426 139.513 222.919 131.967C223.221 127.487 220.854 124.275 217.685 122.971Z" fill="#D87639"/>
<path d="M30.939 127.263L30.963 127.28L31.019 127.32L30.939 127.263Z" fill="#F1AC56"/>
<path d="M31.4631 127.667C31.2965 127.539 31.1285 127.409 30.9631 127.28C30.4245 126.799 29.7831 126.48 29.1084 126.349C29.3578 125.717 29.4885 124.976 29.4071 124.304C29.2058 122.619 28.5924 121.512 27.2084 120.501C26.1271 119.712 24.6378 119.799 23.4018 119.993C22.3191 120.165 21.2844 120.955 20.5111 121.676C18.6884 123.375 17.6151 126.28 18.9698 128.575C20.0578 130.413 22.4378 131.124 24.4778 130.688C24.4231 131.279 24.4885 131.876 24.7271 132.452C25.0738 133.288 25.2005 133.511 25.7791 134.228C26.3231 134.903 27.3271 135.173 28.1458 135.208C28.4111 135.219 29.0672 135.399 28.2312 135.179C29.7552 135.58 31.2964 134.927 32.1191 133.597C32.6804 132.689 32.6631 131.683 32.6991 130.665C32.7258 129.921 32.5298 129.108 32.1271 128.479C31.9605 128.157 31.7378 127.887 31.4631 127.667Z" fill="#F1AC56"/>
<path d="M56.3167 135.468L56.0553 135.275C55.7033 134.851 55.2727 134.501 54.7753 134.263C54.35 132.949 53.478 131.809 52.1954 131.007C51.3794 130.496 50.266 130.225 49.25 130.32C49.274 130.068 49.294 129.815 49.2767 129.571C49.1754 128.135 48.67 126.979 47.7167 125.903C46.1433 124.128 43.0807 124.228 41.49 125.872C40.3194 127.08 40.1833 128.707 40.7833 130.032C40.5073 131.2 40.9327 132.483 41.7354 133.367C42.4247 134.129 43.67 134.481 44.6833 134.415C44.166 135.624 44.062 137.039 44.4113 138.256C45.1033 140.653 47.2914 141.633 49.5047 141.509C50.3127 141.644 51.1487 141.653 52.0234 141.632L52.1514 141.687H52.1594C53.5527 142.26 55.106 142.129 56.3167 140.919C57.682 139.553 57.958 136.785 56.3167 135.468Z" fill="#F1AC56"/>
<path d="M75.8765 134.093C74.5699 134.393 73.2526 135.013 72.1872 135.892C71.8632 135.684 71.5112 135.509 71.1152 135.348C72.6912 135.991 71.7405 135.572 71.3552 135.379C70.3565 134.879 69.6738 134.731 68.5725 134.615C67.7272 134.527 66.6699 134.839 65.9566 135.28C65.1072 135.807 64.1525 136.773 64.0032 137.793C63.8405 138.9 63.8392 139.073 64.0045 140.177C64.1979 141.481 65.5472 142.588 66.7418 142.916C67.1192 143.02 67.5206 143.056 67.9232 143.039L68.0712 143.093C68.9379 143.32 69.7379 143.216 70.5286 142.965C70.7992 143.501 71.1325 144.004 71.5472 144.441C72.0499 145.631 73.0326 146.643 74.4979 147.128C77.1232 147.997 80.4605 147.528 82.6579 145.889C85.9725 143.421 87.1832 139.13 84.2405 135.832C82.2832 133.638 78.5312 133.484 75.8765 134.093Z" fill="#F1AC56"/>
<path d="M59.8139 129.603C58.2819 129.603 57.002 130.882 57.002 132.416C57.002 133.95 58.2819 135.228 59.8139 135.228C61.3473 135.228 62.6273 133.95 62.6273 132.416C62.6273 130.882 61.3473 129.603 59.8139 129.603Z" fill="#F1AC56"/>
<path d="M132.702 143.641C131.311 143.641 130.15 144.801 130.15 146.193C130.15 147.585 131.311 148.745 132.702 148.745C134.093 148.745 135.254 147.585 135.254 146.193C135.254 144.801 134.093 143.641 132.702 143.641Z" fill="#F1AC56"/>
<path d="M34.6723 135.668L34.5736 135.741C33.515 136.037 32.8323 137.451 33.8043 138.424C34.7803 139.4 36.2017 138.711 36.4923 137.648L36.5603 137.556C37.3683 136.463 35.7643 134.857 34.6723 135.668Z" fill="#F1AC56"/>
<path d="M100.599 139.567C99.571 139.111 98.7896 138.856 97.6336 138.829C96.5909 138.807 95.5243 139.233 94.6243 139.7C92.1696 140.971 90.9283 144.356 92.4643 146.764C92.9337 147.499 93.5683 148.077 94.311 148.449C94.9016 149.083 95.663 149.553 96.5043 149.733C97.7296 149.993 98.795 149.783 99.9123 149.231L100.1 149.109C100.959 148.439 101.063 148.364 100.412 148.881C100.798 148.643 101.154 148.343 101.49 148.037C102.686 146.944 103.296 145.708 103.451 144.084C103.624 142.267 102.203 140.277 100.599 139.567Z" fill="#F1AC56"/>
<path d="M127.107 139.118C125.407 137.361 123.023 136.541 120.646 136.292C117.646 135.981 115.185 136.834 113.405 139.358C113.191 139.66 113.014 139.969 112.854 140.282C111.538 139.685 109.967 139.597 108.538 139.845C108.225 139.9 107.928 140 107.647 140.129C105.691 140.817 104.366 142.974 104.603 145.03C104.863 147.286 106.237 149.184 108.549 149.697C110.534 150.137 112.438 149.629 113.99 148.345L114.022 148.312C115.026 149.418 116.381 150.252 117.987 150.608C118.395 150.7 118.799 150.745 119.205 150.769C120.09 150.933 120.996 150.889 121.836 150.634C121.97 150.645 122.099 150.658 122.235 150.665C127.91 150.905 130.905 143.044 127.107 139.118Z" fill="#F1AC56"/>
<path d="M148.669 135.291C148.641 135.081 148.602 134.873 148.535 134.668C148.178 133.585 147.113 132.497 145.859 132.632C144.497 132.777 143.314 133.276 142.579 134.52C142.181 135.197 142.089 135.927 142.187 136.619C139.961 136.751 138.117 138.448 138.046 140.731C137.987 140.921 137.937 141.111 137.901 141.299C137.567 142.987 138.355 145.069 140.251 145.439C141.474 145.679 142.557 145.78 143.783 145.545C146.042 145.116 147.405 143.049 147.491 140.86C147.515 140.275 147.373 139.715 147.13 139.2C148.15 138.593 148.826 137.444 148.761 136.277L148.771 136.197C148.761 135.817 148.639 134.976 148.669 135.291Z" fill="#F1AC56"/>
<path d="M190.146 129.209C189.275 129.209 188.47 129.509 187.808 129.997L187.708 129.743C187.579 129.468 187.273 128.611 187.662 129.785C187.473 129.215 187.193 128.569 186.849 128.055C185.241 125.651 182.735 124.655 179.905 125.083C181.551 124.835 179.669 125.045 179.118 125.231C178.281 125.509 177.524 125.903 176.894 126.533C175.687 127.739 175.147 129.617 175.595 131.272L175.536 131.62C174.894 131.585 174.202 131.655 173.722 131.829C172.566 132.251 171.838 132.864 171.11 133.736C170.695 133.603 170.266 133.511 169.813 133.511C167.706 133.511 165.918 135.075 165.544 137.085C165.127 136.703 164.659 136.373 164.216 136.135C162.814 135.38 161.263 135.145 159.714 135.54C158.024 135.969 156.614 137.697 156.682 139.475L156.627 139.541C156.04 140.369 156.079 141.531 156.285 142.463C156.511 143.501 157.398 144.416 158.274 144.968C159.29 145.609 160.627 145.856 161.811 145.736C163.179 145.6 164.822 145.253 165.782 144.16C166.373 143.487 166.851 142.815 167.065 141.925C167.119 141.695 167.137 141.479 167.157 141.261C167.898 141.844 168.814 142.209 169.813 142.209C170.493 142.209 171.13 142.032 171.708 141.744C171.939 141.911 172.183 142.053 172.442 142.173C172.855 142.86 173.643 143.577 174.46 143.709C175.634 143.903 176.597 144.113 177.798 143.873C179.567 143.52 180.683 141.807 181.263 140.239C181.484 139.641 181.557 139.045 181.521 138.471C182.355 138.468 183.181 138.364 183.877 138.208C185.162 137.92 186.408 137.028 187.255 135.899C187.987 136.679 189.014 137.177 190.146 137.177C192.318 137.177 194.13 135.365 194.13 133.193C194.13 131.021 192.318 129.209 190.146 129.209Z" fill="#F1AC56"/>
<path d="M203.96 122.736C203.234 121.411 202.079 120.673 200.715 120.137C199.61 119.701 198.106 119.553 196.984 119.981C195.142 120.681 193.776 122.108 193.776 124.193C193.776 125.033 194.006 125.76 194.391 126.38C194.476 127.364 194.814 127.996 195.415 128.772C195.808 129.28 196.444 129.651 197.03 129.913C198.26 130.471 199.651 131.016 201.008 130.496C202.667 129.864 203.682 128.791 204.292 127.14C204.828 125.688 204.704 124.091 203.96 122.736Z" fill="#F1AC56"/>
</g>
<defs>
<clipPath id="clip0_13_6928">
<rect width="221.81" height="91.3497" fill="white" transform="translate(1.13525 77.7173)"/>
</clipPath>
</defs>
</svg>
