<svg width="222" height="169" viewBox="0 0 222 169" fill="none" xmlns="http://www.w3.org/2000/svg">
<g clip-path="url(#clip0_86_947)">
<path d="M167.318 93.128C172.864 89.0494 181.971 92.0627 181.971 101.876C184.638 96.3694 196.291 97.7027 195.691 106.929C199.304 104.543 204.291 106.703 204.131 111.809C209.024 109.183 218.011 114.583 216.052 122.556C213.398 121.689 210.264 122.143 207.691 124.263C206.131 118.196 199.731 116.316 194.131 116.703C189.772 117.008 186.078 120.303 184.678 123.756C182.238 122.223 179.024 121.889 175.464 122.703C169.358 124.089 165.798 127.876 165.024 133.143C162.291 128.036 154.798 130.196 153.904 134.929C151.971 128.036 145.131 126.036 140.464 126.543C136.451 126.969 131.304 129.209 129.784 135.089C126.464 131.901 121.091 129.556 115.238 130.036C110.838 130.396 106.758 132.663 104.264 136.008C103.598 130.128 92.2109 127.916 87.9442 133.436C85.8909 131.036 82.4242 129.183 78.6376 128.863C74.8509 128.556 69.7842 129.529 66.8642 132.983C66.0376 127.504 58.5176 124.128 53.2909 126.128C51.6509 119.889 39.2509 115.369 33.4642 125.596C32.7976 119.369 27.9042 116.929 23.4642 116.929C16.7842 116.929 13.2376 122.036 13.0242 125.143C11.4242 124.249 9.63756 124.036 7.9309 124.369C5.77223 116.489 15.0642 110.449 20.3576 114.036C19.0242 106.036 28.7976 102.703 33.3042 108.036C31.4776 100.876 38.9442 95.8227 44.7442 97.956C46.7722 90.556 59.1709 86.2227 65.4642 94.476C66.3576 89.1427 71.5576 85.6494 77.9709 86.5427C80.9576 86.956 83.3042 88.4494 84.8109 90.316C87.0242 84.2894 96.3856 83.0227 99.4642 88.3694C101.398 77.6107 119.758 72.6747 127.131 84.0627C129.584 82.8227 132.651 82.4614 136.131 83.3694C141.691 84.8227 144.638 89.5294 145.024 93.1427C148.411 83.3694 164.264 85.1427 167.304 93.128H167.318Z" fill="#D87639"/>
<path d="M33.4641 125.596C39.2508 115.369 51.6508 119.889 53.2908 126.128C58.5175 124.128 66.0375 127.504 66.8641 132.983C69.7841 129.529 74.8508 128.556 78.6375 128.863C82.4241 129.183 85.8908 131.036 87.9441 133.436C92.2108 127.916 103.597 130.128 104.264 136.008C106.757 132.663 110.837 130.396 115.237 130.036C121.091 129.556 126.464 131.901 129.784 135.089C131.304 129.209 136.451 126.969 140.464 126.543C145.131 126.036 151.971 128.036 153.904 134.929C154.797 130.196 162.291 128.036 165.024 133.143C165.797 127.876 169.357 124.089 175.464 122.703C179.024 121.889 182.237 122.223 184.677 123.756C186.012 120.464 189.441 117.347 193.535 116.795C190.16 113.529 183.847 114.001 181.971 117.876C181.971 108.063 172.864 105.049 167.317 109.128H167.304C164.264 101.143 148.411 99.3694 145.024 109.143C144.637 105.529 141.691 100.823 136.131 99.3694C132.651 98.4614 129.584 98.8227 127.131 100.063C119.757 88.6747 101.397 93.6107 99.4641 104.369C96.3855 99.0227 87.0241 100.289 84.8108 106.316C83.3041 104.449 80.9575 102.956 77.9708 102.543C71.5575 101.649 66.3575 105.143 65.4641 110.476C59.1708 102.223 46.7721 106.556 44.7441 113.956C38.9441 111.823 31.4775 116.876 33.3042 124.036L33.1361 123.868C33.2801 124.412 33.3975 124.98 33.4641 125.596Z" fill="#B74F2F"/>
<path d="M192.351 127.147C192.351 138.375 158.772 147.48 117.351 147.48C75.9306 147.48 42.3506 138.375 42.3506 127.147C42.3506 115.919 75.9306 106.813 117.351 106.813C158.772 106.813 192.351 115.919 192.351 127.147Z" fill="#612D26"/>
<path d="M216.052 122.556C219.531 123.674 222.224 127.036 221.904 131.809C221.411 139.356 216.451 141.61 211.344 140.876C211.344 142.234 211.038 143.689 210.358 145.142C207.998 150.249 199.691 152.262 191.691 148.702C189.719 159.302 175.691 159.889 170.238 156.461C167.491 162.689 158.386 164.476 153.518 160.516C151.424 166.716 140.224 167.956 136.291 161.702C132.638 167.036 126.411 169.702 116.291 168.702C110.719 168.142 107.291 166.289 105.264 163.996C96.5709 172.277 81.9175 166.862 79.6242 159.702C77.3042 162.862 71.9709 164.862 65.4642 163.702C61.8242 163.049 58.1575 160.582 56.5042 156.996C51.1975 163.369 38.2375 160.128 37.3042 152.369C31.0775 154.649 19.6242 154.036 15.9709 148.542C14.6909 146.622 13.9575 144.756 13.6509 142.996C5.59753 143.61 0.424205 140.022 0.130871 134.036C-0.109129 129.182 3.70421 125.156 7.93087 124.369C9.63754 124.036 11.4242 124.249 13.0242 125.142C13.2375 122.036 16.7842 116.929 23.4642 116.929C27.9042 116.929 32.7975 119.369 33.4642 125.596C39.2509 115.369 51.6509 119.889 53.2909 126.128C58.5175 124.128 66.0375 127.504 66.8642 132.982C69.7842 129.529 74.8509 128.556 78.6375 128.862C82.4242 129.182 85.8909 131.036 87.9442 133.436C92.2109 127.916 103.598 130.128 104.264 136.008C106.758 132.662 110.838 130.396 115.238 130.036C121.091 129.556 126.464 131.901 129.784 135.089C131.304 129.209 136.451 126.969 140.464 126.542C145.131 126.036 151.971 128.036 153.904 134.929C154.798 130.196 162.291 128.036 165.024 133.142C165.798 127.876 169.358 124.089 175.464 122.702C179.024 121.889 182.238 122.222 184.678 123.756C186.078 120.302 189.772 117.008 194.131 116.702C199.731 116.316 206.131 118.196 207.691 124.262C210.264 122.142 213.398 121.689 216.052 122.556Z" fill="#E88D3A"/>
<path d="M216.669 122.813C216.099 129.784 211.439 131.877 206.633 131.188C206.633 132.484 206.341 133.869 205.695 135.253C203.444 140.12 195.528 142.04 187.904 138.646C186.023 148.749 172.655 149.308 167.457 146.042C164.839 151.977 156.163 153.68 151.523 149.904C149.527 155.813 138.855 156.996 135.105 151.036C131.621 156.118 125.688 158.661 116.044 157.708C110.732 157.173 107.465 155.406 105.535 153.222C97.2494 161.113 83.2827 155.953 81.0987 149.13C78.8867 152.141 73.8041 154.048 67.6041 152.942C64.1334 152.32 60.6387 149.969 59.0641 146.55C54.0054 152.624 41.6561 149.537 40.7654 142.141C34.8307 144.313 23.9147 143.729 20.4334 138.493C19.2134 136.665 18.5134 134.886 18.2214 133.209C10.8174 133.772 5.98141 130.605 5.39741 125.257C2.30408 126.862 -0.0585863 130.185 0.130747 134.036C0.42408 140.023 5.5974 143.61 13.6507 142.996C13.9574 144.756 14.6908 146.622 15.9708 148.542C19.6241 154.036 31.0774 154.649 37.3041 152.369C38.2374 160.128 51.1974 163.369 56.5041 156.996C58.1574 160.582 61.8241 163.049 65.4641 163.702C71.9707 164.862 77.3041 162.862 79.6241 159.702C81.9174 166.862 96.5707 172.277 105.264 163.996C107.291 166.289 110.719 168.142 116.291 168.702C126.411 169.702 132.637 167.036 136.291 161.702C140.224 167.956 151.424 166.716 153.517 160.516C158.385 164.476 167.491 162.689 170.237 156.461C175.691 159.889 189.719 159.302 191.691 148.702C199.691 152.262 207.997 150.249 210.357 145.142C211.037 143.689 211.344 142.234 211.344 140.876C216.451 141.61 221.411 139.356 221.904 131.809C222.205 127.329 219.839 124.117 216.669 122.813Z" fill="#D87639"/>
<path d="M55.3016 135.311L55.0403 135.117C54.6883 134.693 54.2576 134.344 53.7603 134.105C53.335 132.792 52.463 131.652 51.1803 130.849C50.3643 130.34 49.251 130.068 48.235 130.164C48.259 129.911 48.2776 129.657 48.2616 129.413C48.1603 127.977 47.655 126.821 46.7016 125.745C45.1283 123.971 42.0656 124.071 40.475 125.715C39.3043 126.923 39.167 128.549 39.7683 129.875C39.4923 131.043 39.9176 132.325 40.7203 133.209C41.4096 133.972 42.655 134.324 43.6683 134.257C43.151 135.467 43.047 136.881 43.3963 138.099C44.0883 140.496 46.2763 141.476 48.4896 141.352C49.2976 141.487 50.1336 141.496 51.0083 141.475L51.1363 141.529H51.1416C52.5376 142.103 54.091 141.972 55.3016 140.761C56.6656 139.396 56.943 136.628 55.3016 135.311Z" fill="#F1AC56"/>
<path d="M74.8614 133.936C73.5534 134.236 72.2374 134.856 71.1721 135.735C70.8481 135.527 70.4961 135.352 70.1001 135.191C71.6761 135.835 70.7254 135.415 70.3401 135.223C69.3414 134.723 68.6587 134.573 67.5574 134.457C66.7121 134.369 65.6547 134.681 64.9414 135.123C64.0921 135.649 63.1374 136.617 62.9881 137.636C62.8254 138.743 62.8241 138.916 62.9894 140.02C63.1827 141.324 64.5321 142.431 65.7267 142.759C66.1041 142.863 66.5054 142.899 66.9081 142.881L67.0547 142.936C67.9227 143.164 68.7214 143.06 69.5134 142.808C69.784 143.344 70.1174 143.847 70.5321 144.284C71.0347 145.473 72.0174 146.485 73.4827 146.971C76.108 147.84 79.4454 147.371 81.6427 145.732C84.9574 143.264 86.1667 138.973 83.2254 135.675C81.2681 133.481 77.5161 133.327 74.8614 133.936Z" fill="#F1AC56"/>
<path d="M58.7988 129.447C57.2668 129.447 55.9868 130.725 55.9868 132.259C55.9868 133.792 57.2668 135.071 58.7988 135.071C60.3308 135.071 61.6108 133.792 61.6108 132.259C61.6108 130.725 60.3308 129.447 58.7988 129.447Z" fill="#F1AC56"/>
<path d="M131.687 143.484C130.296 143.484 129.135 144.644 129.135 146.036C129.135 147.428 130.296 148.588 131.687 148.588C133.077 148.588 134.239 147.428 134.239 146.036C134.239 144.644 133.077 143.484 131.687 143.484Z" fill="#F1AC56"/>
<path d="M99.5839 139.409C98.5545 138.953 97.7745 138.699 96.6185 138.673C95.5759 138.649 94.5092 139.076 93.6092 139.543C91.1545 140.813 89.9132 144.199 91.4492 146.608C91.9185 147.341 92.5532 147.92 93.2959 148.292C93.8865 148.925 94.6479 149.396 95.4892 149.576C96.7145 149.837 97.7799 149.625 98.8972 149.073L99.0852 148.952C99.9425 148.283 100.048 148.207 99.3972 148.725C99.7825 148.485 100.139 148.185 100.475 147.88C101.671 146.787 102.281 145.551 102.436 143.927C102.609 142.111 101.188 140.12 99.5839 139.409Z" fill="#F1AC56"/>
<path d="M126.092 138.961C124.392 137.204 122.008 136.384 119.631 136.135C116.631 135.824 114.169 136.677 112.388 139.201C112.176 139.504 111.997 139.812 111.839 140.125C110.523 139.528 108.952 139.441 107.523 139.688C107.209 139.743 106.913 139.843 106.632 139.972C104.676 140.66 103.351 142.817 103.588 144.873C103.848 147.129 105.22 149.027 107.533 149.54C109.519 149.98 111.423 149.472 112.975 148.188L113.007 148.155C114.011 149.261 115.365 150.095 116.972 150.451C117.38 150.543 117.784 150.588 118.189 150.613C119.075 150.777 119.981 150.732 120.821 150.477C120.955 150.488 121.084 150.503 121.22 150.508C126.895 150.748 129.888 142.888 126.092 138.961Z" fill="#F1AC56"/>
<path d="M147.653 135.133C147.625 134.924 147.587 134.716 147.52 134.511C147.163 133.428 146.097 132.34 144.844 132.475C143.481 132.62 142.299 133.119 141.564 134.363C141.164 135.04 141.073 135.769 141.172 136.461C138.944 136.593 137.101 138.291 137.031 140.573C136.972 140.764 136.921 140.953 136.885 141.141C136.552 142.831 137.34 144.912 139.236 145.283C140.459 145.521 141.541 145.623 142.768 145.389C145.027 144.959 146.389 142.893 146.476 140.703C146.499 140.117 146.357 139.559 146.115 139.043C147.135 138.436 147.811 137.287 147.745 136.12L147.756 136.04C147.745 135.66 147.624 134.819 147.653 135.133Z" fill="#F1AC56"/>
<path d="M189.131 129.052C188.261 129.052 187.455 129.352 186.794 129.84L186.694 129.585C186.565 129.311 186.258 128.453 186.647 129.628C186.458 129.059 186.178 128.412 185.833 127.897C184.226 125.493 181.721 124.499 178.889 124.925C180.537 124.677 178.654 124.889 178.103 125.073C177.266 125.352 176.51 125.745 175.879 126.376C174.673 127.581 174.133 129.46 174.581 131.116L174.522 131.463C173.879 131.428 173.187 131.499 172.707 131.673C171.551 132.093 170.823 132.707 170.095 133.579C169.681 133.447 169.251 133.353 168.798 133.353C166.691 133.353 164.903 134.917 164.53 136.928C164.111 136.545 163.645 136.216 163.202 135.977C161.799 135.224 160.249 134.988 158.699 135.383C157.01 135.812 155.599 137.54 155.666 139.317L155.613 139.384C155.026 140.212 155.065 141.373 155.27 142.305C155.497 143.344 156.383 144.259 157.259 144.811C158.275 145.452 159.611 145.699 160.797 145.579C162.165 145.444 163.807 145.096 164.767 144.004C165.358 143.331 165.837 142.657 166.05 141.768C166.105 141.537 166.122 141.321 166.142 141.104C166.883 141.687 167.799 142.052 168.798 142.052C169.478 142.052 170.115 141.875 170.694 141.587C170.925 141.753 171.169 141.896 171.427 142.016C171.841 142.703 172.629 143.42 173.445 143.553C174.619 143.745 175.582 143.956 176.783 143.716C178.553 143.363 179.669 141.649 180.249 140.081C180.47 139.484 180.542 138.889 180.506 138.313C181.341 138.311 182.165 138.207 182.862 138.051C184.147 137.763 185.394 136.871 186.241 135.741C186.973 136.521 187.998 137.02 189.131 137.02C191.303 137.02 193.115 135.208 193.115 133.036C193.115 130.864 191.303 129.052 189.131 129.052Z" fill="#F1AC56"/>
<path d="M202.946 122.579C202.219 121.253 201.064 120.516 199.7 119.98C198.595 119.544 197.091 119.396 195.97 119.824C194.127 120.524 192.762 121.951 192.762 124.036C192.762 124.876 192.991 125.603 193.376 126.224C193.462 127.207 193.799 127.84 194.4 128.616C194.794 129.123 195.43 129.493 196.015 129.756C197.246 130.313 198.636 130.859 199.994 130.34C201.652 129.707 202.666 128.633 203.276 126.983C203.814 125.531 203.69 123.933 202.946 122.579Z" fill="#F1AC56"/>
<mask id="mask0_86_947" style="mask-type:luminance" maskUnits="userSpaceOnUse" x="52" y="32" width="119" height="116">
<path d="M167.564 112.045C165.911 96.3786 163.658 81.6586 160.631 72.512C152.484 47.8333 133.484 32.5 111.018 32.5C88.5644 32.5 69.5644 47.8333 61.4178 72.512C58.1378 82.472 55.7511 99.032 54.0444 116.232C53.3511 123.272 52.7645 130.432 52.2725 137.272C65.2178 143.365 89.5111 147.485 117.351 147.485C137.898 147.485 156.511 145.245 170.059 141.619C169.444 132.152 168.618 121.912 167.564 112.045Z" fill="white"/>
</mask>
<g mask="url(#mask0_86_947)">
<path d="M111.024 178.655C122.951 178.655 160.803 176.58 169.618 170.876C168.063 131.987 164.475 90.552 158.73 73.1333C151.006 49.7253 133.04 34.5054 111.024 34.5054C89.0111 34.5054 71.0431 49.7253 63.3218 73.1333C57.5738 90.552 53.9885 131.987 52.4312 170.876C61.2458 176.58 99.1005 178.655 111.024 178.655Z" fill="#CD5C29"/>
<path d="M111.024 154.388C87.6005 154.388 67.0538 141.86 55.4312 123.025C54.0738 138.149 53.0765 154.728 52.4312 170.876C61.2458 176.58 99.1005 178.655 111.024 178.655C122.951 178.655 160.803 176.58 169.618 170.876C168.972 154.728 167.975 138.149 166.62 123.025C154.996 141.86 134.448 154.388 111.024 154.388Z" fill="#BA4927"/>
<path d="M59.7645 172.244C61.2325 135.568 64.6152 96.4907 70.0352 80.0627C77.3192 57.9867 94.2645 43.6307 115.024 43.6307C135.787 43.6307 152.732 57.9867 160.016 80.0627C161.008 83.0747 160.23 77.6813 158.73 73.1333C151.006 49.7253 133.04 34.5054 111.024 34.5054C89.0111 34.5054 71.0431 49.7253 63.3218 73.1333C57.5738 90.552 53.9885 131.987 52.4312 170.876C55.5245 172.877 61.8032 173.563 59.7645 172.244Z" fill="#E6894A"/>
<path d="M54.4805 169.74C64.1525 174.589 98.3992 176.655 111.025 176.655C123.65 176.655 157.899 174.589 167.571 169.74C165.71 124.364 161.705 88.536 156.83 73.76C149.249 50.7813 131.697 36.5054 111.025 36.5054C90.3525 36.5054 72.8005 50.7813 65.2205 73.76C60.3445 88.536 56.3392 124.364 54.4805 169.74ZM111.025 180.655C103.697 180.655 61.5538 179.161 51.3445 172.556C50.7512 172.172 50.4045 171.503 50.4339 170.796C51.3219 148.561 54.1725 94.476 61.4205 72.5067C69.5605 47.8333 88.5685 32.5054 111.025 32.5054C133.483 32.5054 152.489 47.8333 160.629 72.5067C167.877 94.476 170.727 148.561 171.618 170.796C171.644 171.503 171.298 172.172 170.705 172.556C160.498 179.161 118.355 180.655 111.025 180.655Z" fill="#100F0D"/>
<path d="M119.456 118.001L119.47 118.055C119.47 122.293 115.696 129.467 111.03 129.467C106.363 129.467 102.576 122.293 102.576 118.055L102.603 118.001C105.15 118.815 108.016 119.281 111.03 119.281C114.055 119.281 116.91 118.815 119.456 118.001Z" fill="#F8F8F8"/>
<path d="M111.03 93.4947C121.697 93.4947 130.363 99.268 130.363 106.388C130.363 111.495 125.91 115.907 119.457 118.001C116.91 118.815 114.055 119.281 111.03 119.281C108.017 119.281 105.15 118.815 102.603 118.001V117.988C96.1499 115.907 91.6965 111.495 91.6965 106.388C91.6965 99.268 100.35 93.4947 111.03 93.4947Z" fill="#FDEAB3"/>
<path d="M119.803 101.687C119.803 104.817 115.874 108.833 111.025 108.833C106.178 108.833 102.249 104.817 102.249 101.687C102.249 98.5587 106.178 97.5 111.025 97.5C115.874 97.5 119.803 98.5587 119.803 101.687Z" fill="#100F0D"/>
<path d="M110.775 100.704C110.897 101.523 109.79 102.369 108.306 102.593C106.819 102.817 105.511 102.336 105.389 101.516C105.267 100.697 106.371 99.8507 107.858 99.6267C109.342 99.4027 110.65 99.8854 110.775 100.704Z" fill="white"/>
<path d="M111.025 117.944C101.101 117.944 93.0246 112.76 93.0246 106.388C93.0246 100.015 101.101 94.832 111.025 94.832C120.951 94.832 129.025 100.015 129.025 106.388C129.025 112.76 120.951 117.944 111.025 117.944ZM112.025 127.969V120.575C114.09 120.507 116.071 120.232 117.937 119.776C117.243 123.093 114.79 127.139 112.025 127.969ZM104.115 119.776C105.978 120.232 107.962 120.507 110.025 120.575V127.969C107.262 127.139 104.809 123.093 104.115 119.776ZM131.691 106.388C131.691 98.5453 122.421 92.1653 111.025 92.1653C99.6286 92.1653 90.3579 98.5453 90.3579 106.388C90.3579 111.809 94.7926 116.529 101.295 118.928C101.754 123.527 105.637 130.804 111.025 130.804C116.415 130.804 120.295 123.527 120.757 118.928C127.259 116.529 131.691 111.809 131.691 106.388Z" fill="#100F0D"/>
<path d="M98.1205 107.629H87.5978C87.2298 107.629 86.9312 107.332 86.9312 106.963C86.9312 106.595 87.2298 106.296 87.5978 106.296H98.1205C98.4885 106.296 98.7871 106.595 98.7871 106.963C98.7871 107.332 98.4885 107.629 98.1205 107.629Z" fill="#100F0D"/>
<path d="M88.2326 115.675C87.9939 115.675 87.7619 115.545 87.6445 115.319C87.4725 114.993 87.5979 114.589 87.9232 114.419L97.8112 109.224C98.1339 109.053 98.5405 109.177 98.7099 109.504C98.8819 109.829 98.7566 110.232 98.4312 110.403L88.5432 115.599L88.2326 115.675Z" fill="#100F0D"/>
<path d="M98.1206 105.097L97.8112 105.02L87.9232 99.8253C87.5979 99.6547 87.4725 99.2507 87.6445 98.9253C87.8139 98.6 88.2205 98.476 88.5432 98.6453L98.4312 103.84C98.7566 104.011 98.8819 104.415 98.7099 104.74C98.5925 104.967 98.3606 105.097 98.1206 105.097Z" fill="#100F0D"/>
<path d="M134.451 107.629H123.931C123.561 107.629 123.265 107.332 123.265 106.963C123.265 106.595 123.561 106.296 123.931 106.296H134.451C134.822 106.296 135.118 106.595 135.118 106.963C135.118 107.332 134.822 107.629 134.451 107.629Z" fill="#100F0D"/>
<path d="M133.817 115.675L133.506 115.599L123.621 110.403C123.295 110.232 123.167 109.829 123.339 109.504C123.511 109.177 123.915 109.053 124.241 109.224L134.126 114.419C134.451 114.589 134.579 114.993 134.407 115.319C134.287 115.545 134.055 115.675 133.817 115.675Z" fill="#100F0D"/>
<path d="M123.931 105.097C123.691 105.097 123.459 104.967 123.339 104.74C123.167 104.415 123.295 104.011 123.621 103.84L133.506 98.6453C133.831 98.476 134.235 98.6 134.407 98.9253C134.579 99.2507 134.451 99.6547 134.126 99.8253L124.241 105.02L123.931 105.097Z" fill="#100F0D"/>
<path d="M87.2764 92.388C87.2764 96.316 84.0924 99.5 80.1644 99.5C76.2377 99.5 73.0537 96.316 73.0537 92.388C73.0537 88.46 76.2377 85.2773 80.1644 85.2773C84.0924 85.2773 87.2764 88.46 87.2764 92.388Z" fill="#100F0D"/>
<path d="M80.1632 90.5C80.1632 91.6654 79.2179 92.6107 78.0539 92.6107C76.8872 92.6107 75.9419 91.6654 75.9419 90.5C75.9419 89.3347 76.8872 88.3894 78.0539 88.3894C79.2179 88.3894 80.1632 89.3347 80.1632 90.5Z" fill="white"/>
<path d="M67.9419 77.2213C75.5486 78.3453 89.5245 81.0827 98.4592 84.6694C101.582 77.5894 102.205 69.4613 99.6859 61.856C99.7565 66.128 99.2432 69.3747 98.4046 71.7933C86.9419 66.3373 76.0739 63.4507 72.2299 62.636C70.3579 65.7627 68.1752 72.352 67.9419 77.2213Z" fill="#100F0D"/>
<path d="M148.996 92.388C148.996 96.316 145.811 99.5 141.884 99.5C137.956 99.5 134.772 96.316 134.772 92.388C134.772 88.46 137.956 85.2773 141.884 85.2773C145.811 85.2773 148.996 88.46 148.996 92.388Z" fill="#100F0D"/>
<path d="M141.882 90.5C141.882 91.6654 140.937 92.6107 139.773 92.6107C138.606 92.6107 137.661 91.6654 137.661 90.5C137.661 89.3347 138.606 88.3894 139.773 88.3894C140.937 88.3894 141.882 89.3347 141.882 90.5Z" fill="white"/>
<path d="M154.109 77.2213C146.501 78.3453 132.527 81.0827 123.59 84.6694C120.47 77.5894 119.845 69.4613 122.363 61.856C122.293 66.128 122.806 69.3747 123.645 71.7933C135.109 66.3373 145.978 63.4507 149.822 62.636C151.694 65.7627 153.877 72.352 154.109 77.2213Z" fill="#100F0D"/>
</g>
<path d="M50.6096 136.96L50.535 137.161C44.6203 134.951 39.4336 132.027 35.5576 128.965C42.7456 125.192 53.9429 123.805 57.0136 123.94L58.0736 124.312C56.6856 128.347 54.2896 132.605 50.6096 136.96Z" fill="#FDEAB3"/>
<path d="M58.0735 124.312L57.0135 123.94C46.1148 122.411 39.7348 119.471 33.2295 115.203C39.1802 112.261 48.6908 109.752 58.1642 111.007L59.2975 110.772C60.0188 114.84 59.7895 119.415 58.0735 124.312Z" fill="#FDEAB3"/>
<path d="M53.6148 98.8946C56.2815 101.956 58.4335 106.017 59.2975 110.772L58.1642 111.007C47.7069 108.52 40.4482 105.231 34.2349 103.067C39.8762 99.7786 46.0268 97.8879 53.6148 98.8946Z" fill="#FDEAB3"/>
<path d="M84.7952 127.104C84.2125 134.631 76.8578 142.759 62.3445 140.348C58.2298 139.673 54.2405 138.548 50.5352 137.161L50.6098 136.96C54.2898 132.605 56.6858 128.347 58.0738 124.312C59.7898 119.415 60.0192 114.84 59.2978 110.772C58.4338 106.017 56.2818 101.956 53.6151 98.8947C57.3871 99.3934 61.4965 100.607 66.0712 102.72C76.6965 107.644 85.4592 118.591 84.7952 127.104Z" fill="#CD5C29"/>
<path d="M78.0815 135.488C75.4642 137.537 70.6695 139.701 62.6802 138.376C59.4722 137.841 56.2482 137.013 53.1202 135.957C63.4202 122.531 62.2589 109.993 57.2535 101.661C59.7175 102.284 62.3655 103.216 65.2322 104.543C68.4775 106.047 71.6575 108.213 74.4255 110.804C79.9642 115.992 83.1722 122.18 82.8029 126.956C82.5482 130.229 80.8269 133.34 78.0815 135.488ZM56.0109 125.943C54.7455 128.868 52.9229 131.897 50.4535 134.997C46.4962 133.455 42.7642 131.547 39.5269 129.373C45.5735 127.032 52.9455 126.059 56.0109 125.943ZM37.5429 115.528C43.0349 113.471 50.4856 112.004 57.9042 112.991C58.0376 113.007 58.1629 112.973 58.2869 112.965C58.5509 115.784 58.3055 118.812 57.4255 121.995L57.2975 121.956C48.4149 120.709 42.7615 118.552 37.5429 115.528ZM40.2122 103.139C39.8815 103.013 39.5576 102.891 39.2376 102.771C43.0322 101.155 47.6855 100.116 53.5535 100.929C55.2842 103.176 56.6629 105.824 57.5056 108.777C50.5296 107.044 45.0535 104.976 40.2122 103.139ZM77.1629 107.885C74.0842 105.005 70.5429 102.595 66.9149 100.913C54.2042 95.0239 43.8162 95.1572 33.2376 101.34C32.5629 101.733 32.1802 102.484 32.2535 103.261C32.3309 104.039 32.8549 104.701 33.5895 104.956C35.2349 105.527 36.9562 106.18 38.7922 106.877C40.8682 107.665 43.0509 108.495 45.4202 109.324C40.2922 110.173 35.7069 111.753 32.3442 113.413C31.7042 113.731 31.2789 114.369 31.2349 115.087C31.1935 115.8 31.5269 116.488 32.1362 116.879C36.1696 119.524 40.2695 121.749 45.5295 123.44C41.8029 124.281 37.8522 125.507 34.6389 127.193C34.0402 127.508 33.6415 128.105 33.5762 128.78C33.5215 129.397 33.7509 130.005 34.2015 130.424L34.3269 130.535C41.5269 136.228 51.8789 140.636 62.0269 142.321C71.4482 143.885 77.2975 141.181 80.5509 138.637C84.1722 135.8 86.4482 131.656 86.7895 127.267C87.2642 121.219 83.6602 113.973 77.1629 107.885Z" fill="#100F0D"/>
<path d="M171.442 136.96L171.516 137.161C177.431 134.951 182.618 132.027 186.494 128.965C179.306 125.192 168.108 123.805 165.038 123.94L163.978 124.312C165.366 128.347 167.762 132.605 171.442 136.96Z" fill="#FDEAB3"/>
<path d="M163.977 124.312L165.037 123.94C175.936 122.411 182.316 119.471 188.821 115.203C182.871 112.261 173.36 109.752 163.887 111.007L162.753 110.772C162.032 114.84 162.261 119.415 163.977 124.312Z" fill="#FDEAB3"/>
<path d="M168.436 98.8946C165.769 101.956 163.617 106.017 162.753 110.772L163.887 111.007C174.344 108.52 181.603 105.231 187.816 103.067C182.175 99.7786 176.024 97.8879 168.436 98.8946Z" fill="#FDEAB3"/>
<path d="M137.256 127.104C137.839 134.631 145.193 142.759 159.707 140.348C163.821 139.673 167.811 138.548 171.516 137.161L171.441 136.96C167.761 132.605 165.365 128.347 163.977 124.312C162.261 119.415 162.032 114.84 162.753 110.772C163.617 106.017 165.769 101.956 168.436 98.8947C164.664 99.3934 160.555 100.607 155.98 102.72C145.355 107.644 136.592 118.591 137.256 127.104Z" fill="#CD5C29"/>
<path d="M139.248 126.956C138.879 122.18 142.087 115.992 147.625 110.804C150.393 108.213 153.573 106.047 156.819 104.543C159.685 103.216 162.333 102.284 164.797 101.661C159.792 109.993 158.631 122.531 168.931 135.957C165.803 137.013 162.579 137.841 159.371 138.376C151.381 139.701 146.587 137.537 143.969 135.488C141.224 133.34 139.503 130.229 139.248 126.956ZM182.524 129.373C179.287 131.547 175.555 133.455 171.597 134.997C169.128 131.897 167.305 128.868 166.04 125.943C169.105 126.059 176.477 127.032 182.524 129.373ZM164.753 121.956L164.625 121.995C163.745 118.812 163.5 115.784 163.764 112.965C163.888 112.973 164.013 113.007 164.147 112.991C171.565 112.004 179.016 113.471 184.508 115.528C179.289 118.552 173.636 120.709 164.753 121.956ZM164.545 108.777C165.388 105.824 166.767 103.176 168.497 100.929C174.365 100.116 179.019 101.155 182.813 102.771C182.493 102.891 182.169 103.013 181.839 103.139C176.997 104.976 171.521 107.044 164.545 108.777ZM135.261 127.267C135.603 131.656 137.879 135.8 141.5 138.637C144.753 141.181 150.603 143.885 160.024 142.321C170.172 140.636 180.524 136.228 187.724 130.535L187.849 130.424C188.3 130.005 188.529 129.397 188.475 128.78C188.409 128.105 188.011 127.508 187.412 127.193C184.199 125.507 180.248 124.281 176.521 123.44C181.781 121.749 185.881 119.524 189.915 116.879C190.524 116.488 190.857 115.8 190.816 115.087C190.772 114.369 190.347 113.731 189.707 113.413C186.344 111.753 181.759 110.173 176.631 109.324C179 108.495 181.183 107.665 183.259 106.877C185.095 106.18 186.816 105.527 188.461 104.956C189.196 104.701 189.72 104.039 189.797 103.261C189.871 102.484 189.488 101.733 188.813 101.34C178.235 95.1572 167.847 95.0239 155.136 100.913C151.508 102.595 147.967 105.005 144.888 107.885C138.391 113.973 134.787 121.219 135.261 127.267Z" fill="#100F0D"/>
<path d="M216.052 122.556C219.531 123.674 222.224 127.036 221.904 131.809C221.411 139.356 216.451 141.61 211.344 140.876C211.344 142.234 211.038 143.689 210.358 145.142C207.998 150.249 199.691 152.262 191.691 148.702C189.719 159.302 175.691 159.889 170.238 156.461C167.491 162.689 158.386 164.476 153.518 160.516C151.424 166.716 140.224 167.956 136.291 161.702C132.638 167.036 126.411 169.702 116.291 168.702C110.719 168.142 107.291 166.289 105.264 163.996C96.5709 172.277 81.9175 166.862 79.6242 159.702C77.3042 162.862 71.9709 164.862 65.4642 163.702C61.8242 163.049 58.1575 160.582 56.5042 156.996C51.1975 163.369 38.2375 160.128 37.3042 152.369C31.0775 154.649 19.6242 154.036 15.9709 148.542C14.6909 146.622 13.9575 144.756 13.6509 142.996C5.59753 143.61 0.424205 140.022 0.130871 134.036C-0.109129 129.182 3.70421 125.156 7.93087 124.369C9.63754 124.036 11.4242 124.249 13.0242 125.142C13.2375 122.036 16.7842 116.929 23.4642 116.929C27.9042 116.929 32.7975 119.369 33.4642 125.596C39.2509 115.369 51.6509 119.889 53.2909 126.128C58.5175 124.128 66.0375 127.504 66.8642 132.982C69.7842 129.529 74.8509 128.556 78.6375 128.862C82.4242 129.182 85.8909 131.036 87.9442 133.436C92.2109 127.916 103.598 130.128 104.264 136.008C106.758 132.662 110.838 130.396 115.238 130.036C121.091 129.556 126.464 131.901 129.784 135.089C131.304 129.209 136.451 126.969 140.464 126.542C145.131 126.036 151.971 128.036 153.904 134.929C154.798 130.196 162.291 128.036 165.024 133.142C165.798 127.876 169.358 124.089 175.464 122.702C179.024 121.889 182.238 122.222 184.678 123.756C186.078 120.302 189.772 117.008 194.131 116.702C199.731 116.316 206.131 118.196 207.691 124.262C210.264 122.142 213.398 121.689 216.052 122.556Z" fill="#E88D3A"/>
<path d="M216.669 122.813C216.099 129.784 211.439 131.877 206.633 131.188C206.633 132.484 206.341 133.869 205.695 135.253C203.444 140.12 195.528 142.04 187.904 138.646C186.023 148.749 172.655 149.308 167.457 146.042C164.839 151.977 156.163 153.68 151.523 149.904C149.527 155.813 138.855 156.996 135.105 151.036C131.621 156.118 125.688 158.661 116.044 157.708C110.732 157.173 107.465 155.406 105.535 153.222C97.2494 161.113 83.2827 155.953 81.0987 149.13C78.8867 152.141 73.8041 154.048 67.6041 152.942C64.1334 152.32 60.6387 149.969 59.0641 146.55C54.0054 152.624 41.6561 149.537 40.7654 142.141C34.8307 144.313 23.9147 143.729 20.4334 138.493C19.2134 136.665 18.5134 134.886 18.2214 133.209C10.8174 133.772 5.98141 130.605 5.39741 125.257C2.30408 126.862 -0.0585863 130.185 0.130747 134.036C0.42408 140.023 5.5974 143.61 13.6507 142.996C13.9574 144.756 14.6908 146.622 15.9708 148.542C19.6241 154.036 31.0774 154.649 37.3041 152.369C38.2374 160.128 51.1974 163.369 56.5041 156.996C58.1574 160.582 61.8241 163.049 65.4641 163.702C71.9707 164.862 77.3041 162.862 79.6241 159.702C81.9174 166.862 96.5707 172.277 105.264 163.996C107.291 166.289 110.719 168.142 116.291 168.702C126.411 169.702 132.637 167.036 136.291 161.702C140.224 167.956 151.424 166.716 153.517 160.516C158.385 164.476 167.491 162.689 170.237 156.461C175.691 159.889 189.719 159.302 191.691 148.702C199.691 152.262 207.997 150.249 210.357 145.142C211.037 143.689 211.344 142.234 211.344 140.876C216.451 141.61 221.411 139.356 221.904 131.809C222.205 127.329 219.839 124.117 216.669 122.813Z" fill="#D87639"/>
<path d="M55.3016 135.311L55.0403 135.117C54.6883 134.693 54.2576 134.344 53.7603 134.105C53.335 132.792 52.463 131.652 51.1803 130.849C50.3643 130.34 49.251 130.068 48.235 130.164C48.259 129.911 48.2776 129.657 48.2616 129.413C48.1603 127.977 47.655 126.821 46.7016 125.745C45.1283 123.971 42.0656 124.071 40.475 125.715C39.3043 126.923 39.167 128.549 39.7683 129.875C39.4923 131.043 39.9176 132.325 40.7203 133.209C41.4096 133.972 42.655 134.324 43.6683 134.257C43.151 135.467 43.047 136.881 43.3963 138.099C44.0883 140.496 46.2763 141.476 48.4896 141.352C49.2976 141.487 50.1336 141.496 51.0083 141.475L51.1363 141.529H51.1416C52.5376 142.103 54.091 141.972 55.3016 140.761C56.6656 139.396 56.943 136.628 55.3016 135.311Z" fill="#F1AC56"/>
<path d="M74.8614 133.936C73.5534 134.236 72.2374 134.856 71.1721 135.735C70.8481 135.527 70.4961 135.352 70.1001 135.191C71.6761 135.835 70.7254 135.415 70.3401 135.223C69.3414 134.723 68.6587 134.573 67.5574 134.457C66.7121 134.369 65.6547 134.681 64.9414 135.123C64.0921 135.649 63.1374 136.617 62.9881 137.636C62.8254 138.743 62.8241 138.916 62.9894 140.02C63.1827 141.324 64.5321 142.431 65.7267 142.759C66.1041 142.863 66.5054 142.899 66.9081 142.881L67.0547 142.936C67.9227 143.164 68.7214 143.06 69.5134 142.808C69.784 143.344 70.1174 143.847 70.5321 144.284C71.0347 145.473 72.0174 146.485 73.4827 146.971C76.108 147.84 79.4454 147.371 81.6427 145.732C84.9574 143.264 86.1667 138.973 83.2254 135.675C81.2681 133.481 77.5161 133.327 74.8614 133.936Z" fill="#F1AC56"/>
<path d="M58.7988 129.447C57.2668 129.447 55.9868 130.725 55.9868 132.259C55.9868 133.792 57.2668 135.071 58.7988 135.071C60.3308 135.071 61.6108 133.792 61.6108 132.259C61.6108 130.725 60.3308 129.447 58.7988 129.447Z" fill="#F1AC56"/>
<path d="M131.687 143.484C130.296 143.484 129.135 144.644 129.135 146.036C129.135 147.428 130.296 148.588 131.687 148.588C133.077 148.588 134.239 147.428 134.239 146.036C134.239 144.644 133.077 143.484 131.687 143.484Z" fill="#F1AC56"/>
<path d="M99.5839 139.409C98.5545 138.953 97.7745 138.699 96.6185 138.673C95.5759 138.649 94.5092 139.076 93.6092 139.543C91.1545 140.813 89.9132 144.199 91.4492 146.608C91.9185 147.341 92.5532 147.92 93.2959 148.292C93.8865 148.925 94.6479 149.396 95.4892 149.576C96.7145 149.837 97.7799 149.625 98.8972 149.073L99.0852 148.952C99.9425 148.283 100.048 148.207 99.3972 148.725C99.7825 148.485 100.139 148.185 100.475 147.88C101.671 146.787 102.281 145.551 102.436 143.927C102.609 142.111 101.188 140.12 99.5839 139.409Z" fill="#F1AC56"/>
<path d="M126.092 138.961C124.392 137.204 122.008 136.384 119.631 136.135C116.631 135.824 114.169 136.677 112.388 139.201C112.176 139.504 111.997 139.812 111.839 140.125C110.523 139.528 108.952 139.441 107.523 139.688C107.209 139.743 106.913 139.843 106.632 139.972C104.676 140.66 103.351 142.817 103.588 144.873C103.848 147.129 105.22 149.027 107.533 149.54C109.519 149.98 111.423 149.472 112.975 148.188L113.007 148.155C114.011 149.261 115.365 150.095 116.972 150.451C117.38 150.543 117.784 150.588 118.189 150.613C119.075 150.777 119.981 150.732 120.821 150.477C120.955 150.488 121.084 150.503 121.22 150.508C126.895 150.748 129.888 142.888 126.092 138.961Z" fill="#F1AC56"/>
<path d="M147.653 135.133C147.625 134.924 147.587 134.716 147.52 134.511C147.163 133.428 146.097 132.34 144.844 132.475C143.481 132.62 142.299 133.119 141.564 134.363C141.164 135.04 141.073 135.769 141.172 136.461C138.944 136.593 137.101 138.291 137.031 140.573C136.972 140.764 136.921 140.953 136.885 141.141C136.552 142.831 137.34 144.912 139.236 145.283C140.459 145.521 141.541 145.623 142.768 145.389C145.027 144.959 146.389 142.893 146.476 140.703C146.499 140.117 146.357 139.559 146.115 139.043C147.135 138.436 147.811 137.287 147.745 136.12L147.756 136.04C147.745 135.66 147.624 134.819 147.653 135.133Z" fill="#F1AC56"/>
<path d="M189.131 129.052C188.261 129.052 187.455 129.352 186.794 129.84L186.694 129.585C186.565 129.311 186.258 128.453 186.647 129.628C186.458 129.059 186.178 128.412 185.833 127.897C184.226 125.493 181.721 124.499 178.889 124.925C180.537 124.677 178.654 124.889 178.103 125.073C177.266 125.352 176.51 125.745 175.879 126.376C174.673 127.581 174.133 129.46 174.581 131.116L174.522 131.463C173.879 131.428 173.187 131.499 172.707 131.673C171.551 132.093 170.823 132.707 170.095 133.579C169.681 133.447 169.251 133.353 168.798 133.353C166.691 133.353 164.903 134.917 164.53 136.928C164.111 136.545 163.645 136.216 163.202 135.977C161.799 135.224 160.249 134.988 158.699 135.383C157.01 135.812 155.599 137.54 155.666 139.317L155.613 139.384C155.026 140.212 155.065 141.373 155.27 142.305C155.497 143.344 156.383 144.259 157.259 144.811C158.275 145.452 159.611 145.699 160.797 145.579C162.165 145.444 163.807 145.096 164.767 144.004C165.358 143.331 165.837 142.657 166.05 141.768C166.105 141.537 166.122 141.321 166.142 141.104C166.883 141.687 167.799 142.052 168.798 142.052C169.478 142.052 170.115 141.875 170.694 141.587C170.925 141.753 171.169 141.896 171.427 142.016C171.841 142.703 172.629 143.42 173.445 143.553C174.619 143.745 175.582 143.956 176.783 143.716C178.553 143.363 179.669 141.649 180.249 140.081C180.47 139.484 180.542 138.889 180.506 138.313C181.341 138.311 182.165 138.207 182.862 138.051C184.147 137.763 185.394 136.871 186.241 135.741C186.973 136.521 187.998 137.02 189.131 137.02C191.303 137.02 193.115 135.208 193.115 133.036C193.115 130.864 191.303 129.052 189.131 129.052Z" fill="#F1AC56"/>
<path d="M202.946 122.579C202.219 121.253 201.064 120.516 199.7 119.98C198.595 119.544 197.091 119.396 195.97 119.824C194.127 120.524 192.762 121.951 192.762 124.036C192.762 124.876 192.991 125.603 193.376 126.224C193.462 127.207 193.799 127.84 194.4 128.616C194.794 129.123 195.43 129.493 196.015 129.756C197.246 130.313 198.636 130.859 199.994 130.34C201.652 129.707 202.666 128.633 203.276 126.983C203.814 125.531 203.69 123.933 202.946 122.579Z" fill="#F1AC56"/>
</g>
<defs>
<clipPath id="clip0_86_947">
<rect width="221.81" height="136.41" fill="white" transform="translate(0.120117 32.5)"/>
</clipPath>
</defs>
</svg>
